<?xml version="1.0" standalone="no"?>
<!DOCTYPE svg PUBLIC "-//W3C//DTD SVG 20010904//EN"
 "http://www.w3.org/TR/2001/REC-SVG-20010904/DTD/svg10.dtd">
<svg version="1.0" xmlns="http://www.w3.org/2000/svg"
 width="512.000000pt" height="139.000000pt" viewBox="0 0 512.000000 139.000000"
 preserveAspectRatio="xMidYMid meet">

<g transform="translate(0.000000,139.000000) scale(0.100000,-0.100000)"
fill="#000000" stroke="none">
<path d="M443 1379 c-222 -37 -360 -183 -420 -443 -26 -111 -23 -416 5 -517
77 -282 258 -410 582 -410 140 -1 239 20 339 69 l56 28 3 333 c2 240 -1 337
-9 347 -10 12 -54 14 -233 12 l-221 -3 -3 -122 -3 -123 91 0 90 0 0 -134 0
-134 -66 -7 c-263 -29 -375 116 -362 464 8 195 55 293 165 347 52 26 70 29
173 32 88 2 132 -1 188 -16 51 -13 75 -15 81 -8 5 6 19 58 32 115 23 102 23
104 3 118 -67 49 -336 78 -491 52z"/>
<path d="M2272 1332 c-10 -7 -12 -144 -10 -653 l3 -644 138 -3 137 -3 0 281 0
280 190 0 190 0 2 -278 3 -277 138 -3 137 -3 -2 653 -3 653 -124 3 c-82 2
-128 -1 -137 -9 -11 -9 -14 -58 -14 -245 l0 -234 -190 0 -190 0 -2 243 -3 242
-125 3 c-69 1 -131 -2 -138 -6z"/>
<path d="M4277 1334 c-4 -4 -7 -299 -7 -656 l0 -649 103 3 102 3 3 28 c2 16 6
27 10 25 147 -77 244 -98 361 -78 189 32 266 171 266 485 0 171 -19 257 -75
334 -86 118 -275 153 -439 80 -24 -10 -45 -19 -47 -19 -2 0 -5 100 -6 223 l-3
222 -131 3 c-71 1 -133 -1 -137 -4z m497 -639 c46 -30 61 -87 61 -230 0 -112
-3 -135 -21 -170 -15 -30 -31 -43 -60 -53 -44 -15 -117 -9 -171 13 l-33 14 2
208 3 207 55 18 c62 20 127 17 164 -7z"/>
<path d="M1202 1278 c-122 -86 -73 -272 75 -285 158 -13 227 204 91 287 -46
28 -123 27 -166 -2z"/>
<path d="M1667 1174 c-4 -4 -7 -65 -7 -134 l0 -127 -32 -7 c-18 -3 -49 -11
-70 -17 l-38 -10 0 -94 0 -95 69 0 69 0 4 -237 c3 -224 5 -241 27 -291 29 -65
88 -117 155 -137 91 -27 276 -16 298 17 10 17 10 169 0 185 -5 8 -29 12 -64
11 -67 -2 -112 15 -127 48 -7 16 -11 95 -11 214 l0 190 100 0 100 0 0 115 0
115 -100 0 -99 0 -3 128 -3 127 -131 3 c-71 1 -133 -1 -137 -4z"/>
<path d="M1145 908 c-3 -7 -4 -206 -3 -443 l3 -430 138 -3 137 -3 0 446 0 445
-135 0 c-99 0 -137 -3 -140 -12z"/>
<path d="M3334 906 c-3 -7 -4 -168 -2 -357 l3 -344 29 -58 c50 -102 133 -142
296 -141 89 0 155 17 242 60 l47 24 6 -30 7 -30 94 0 94 0 -2 443 -3 442 -135
0 -135 0 -3 -321 -2 -322 -38 -15 c-108 -43 -193 -27 -211 40 -7 23 -11 155
-11 331 l0 292 -135 0 c-106 0 -137 -3 -141 -14z"/>
</g>
</svg>
