<?xml version="1.0" standalone="no"?>
<!DOCTYPE svg PUBLIC "-//W3C//DTD SVG 20010904//EN"
 "http://www.w3.org/TR/2001/REC-SVG-20010904/DTD/svg10.dtd">
<svg version="1.0" xmlns="http://www.w3.org/2000/svg"
 width="512.000000pt" height="146.000000pt" viewBox="0 0 512.000000 146.000000"
 preserveAspectRatio="xMidYMid meet">

<g transform="translate(0.000000,146.000000) scale(0.100000,-0.100000)"
fill="#000000" stroke="none">
<path d="M218 1420 c-140 -93 -237 -297 -198 -414 16 -49 66 -105 109 -123 49
-21 56 -5 25 62 -24 52 -26 66 -21 139 5 90 31 166 79 232 62 87 60 101 56
-393 -4 -391 -7 -455 -22 -501 -10 -30 -15 -56 -12 -59 11 -11 53 8 85 39 81
78 90 146 91 634 0 426 5 404 -93 412 -46 3 -58 0 -99 -28z"/>
<path d="M1666 1428 c-3 -13 -6 -58 -6 -101 l0 -78 -72 2 c-68 2 -74 1 -85
-22 -24 -46 -17 -66 25 -73 20 -3 56 -6 80 -6 l44 0 -4 -177 c-3 -170 -4 -180
-30 -228 -14 -27 -38 -61 -52 -74 l-26 -24 0 42 c0 70 -31 110 -152 200 l-56
42 29 48 c58 93 46 151 -29 151 -52 0 -100 -32 -122 -83 -25 -53 -25 -74 -1
-118 l19 -35 -61 -109 c-73 -127 -131 -198 -146 -176 -18 27 -23 105 -16 266
6 116 4 168 -4 183 -13 25 -80 62 -111 62 -73 0 -143 -88 -200 -250 -13 -36
-27 -69 -31 -74 -4 -5 -5 59 -2 143 l6 151 -36 15 c-61 25 -85 20 -92 -18 -4
-18 -5 -153 -3 -299 3 -245 5 -268 22 -287 14 -15 31 -21 61 -21 l42 0 16 83
c20 101 59 222 97 302 31 64 86 145 100 145 4 0 6 -89 3 -197 -8 -269 10 -333
92 -333 67 0 127 62 235 243 l74 125 40 -31 c85 -68 121 -148 92 -206 -23 -44
-56 -49 -110 -17 -56 33 -69 33 -95 0 -53 -67 -8 -105 131 -112 80 -4 93 -2
143 23 57 28 121 96 153 163 9 17 19 32 22 32 4 0 10 -20 13 -45 8 -58 38
-116 77 -149 72 -60 175 -12 224 105 l13 31 27 -56 c33 -68 73 -98 137 -104
62 -6 128 25 167 78 l29 39 17 -39 c36 -83 143 -106 207 -44 16 15 32 36 35
47 5 17 9 15 36 -17 72 -88 175 -89 266 -3 l32 31 0 -29 c0 -25 -20 -49 -114
-140 -125 -121 -156 -169 -156 -242 0 -157 205 -208 317 -80 51 58 65 120 71
301 l4 159 44 56 c63 82 138 212 171 297 l28 74 54 0 c51 0 53 -1 47 -24 -30
-120 -30 -283 0 -354 51 -123 184 -150 255 -51 l22 31 24 -31 c69 -88 192 -80
274 18 l33 38 20 -39 c24 -49 68 -78 119 -78 50 0 71 12 102 58 l25 37 0 -32
c0 -44 33 -65 97 -61 l48 3 12 130 c11 130 36 233 75 308 11 22 21 37 23 35 3
-2 9 -66 15 -141 12 -165 25 -228 52 -262 17 -22 27 -26 62 -23 l41 3 16 111
c17 119 49 237 80 294 l18 35 1 -145 c0 -207 27 -297 100 -335 66 -34 137 -8
171 63 27 54 31 145 8 150 -11 2 -20 -13 -32 -56 -17 -61 -46 -98 -71 -89 -8
3 -23 18 -33 33 -16 24 -18 55 -21 234 -1 113 -4 215 -7 226 -5 24 -80 64
-120 64 -15 0 -31 -9 -39 -23 -21 -31 -82 -221 -91 -281 -11 -69 -24 -38 -26
59 -1 44 -4 107 -8 140 -5 53 -9 62 -40 82 -41 28 -82 29 -105 4 -10 -11 -35
-68 -56 -128 l-39 -108 0 112 c-1 127 -4 133 -84 136 l-42 2 -5 -215 c-5 -214
-5 -215 -35 -275 -28 -56 -32 -60 -65 -60 -53 0 -59 29 -59 297 l-1 226 -31
11 c-47 16 -76 13 -92 -9 -13 -18 -15 -19 -27 -5 -41 49 -135 60 -191 22 -36
-24 -92 -108 -111 -167 -6 -19 -12 -97 -13 -172 -2 -153 -13 -195 -53 -205
-83 -21 -114 121 -72 337 22 114 22 120 5 146 -16 25 -20 26 -74 21 -31 -3
-73 -9 -93 -13 -37 -6 -38 -6 -38 25 0 94 -119 90 -150 -5 -10 -29 -8 -41 10
-80 l22 -45 -22 -62 c-25 -70 -81 -180 -110 -217 l-20 -25 0 222 0 221 -35 12
c-47 16 -77 10 -91 -18 -9 -19 -13 -20 -17 -8 -11 28 -70 56 -118 56 -56 0
-101 -28 -140 -85 -47 -69 -62 -128 -68 -282 -5 -123 -9 -145 -27 -170 -15
-19 -30 -28 -50 -28 -53 0 -59 30 -59 289 l0 230 -34 13 c-48 20 -85 14 -89
-15 -3 -23 -4 -23 -38 7 -19 17 -46 34 -60 37 -38 10 -100 -2 -131 -24 -66
-47 -122 -193 -123 -317 0 -34 -9 -69 -29 -110 -45 -96 -88 -121 -124 -73 -25
34 -32 151 -22 381 l7 167 89 0 c94 0 109 8 109 59 0 25 -19 30 -120 33 l-75
3 4 88 3 87 -36 15 c-19 8 -51 15 -70 15 -26 0 -35 -5 -40 -22z m589 -404 c24
-10 51 -72 59 -136 13 -122 -33 -288 -88 -318 -97 -51 -152 128 -104 344 18
83 76 131 133 110z m621 -9 c33 -23 47 -92 42 -208 -7 -150 -56 -247 -124
-247 -75 0 -110 223 -59 372 28 80 92 118 141 83z m1062 -8 c31 -33 42 -79 42
-179 0 -193 -89 -324 -165 -242 -14 15 -28 43 -32 63 -12 57 -8 221 6 274 27
95 100 136 149 84z m-1003 -698 c-12 -169 -44 -239 -111 -239 -85 0 -94 91
-20 200 37 56 115 140 129 140 6 0 7 -36 2 -101z"/>
</g>
</svg>
