<?xml version="1.0" standalone="no"?>
<!DOCTYPE svg PUBLIC "-//W3C//DTD SVG 20010904//EN"
 "http://www.w3.org/TR/2001/REC-SVG-20010904/DTD/svg10.dtd">
<svg version="1.0" xmlns="http://www.w3.org/2000/svg"
 width="512.000000pt" height="128.000000pt" viewBox="0 0 512.000000 128.000000"
 preserveAspectRatio="xMidYMid meet">

<g transform="translate(0.000000,128.000000) scale(0.100000,-0.100000)"
fill="#000000" stroke="none">
<path d="M3891 1266 c-51 -28 -50 -21 -51 -623 0 -415 3 -569 12 -588 25 -56
19 -55 628 -55 609 0 603 -1 628 55 9 19 12 173 12 586 0 608 0 602 -55 627
-40 18 -1141 16 -1174 -2z m279 -161 c102 -53 60 -215 -55 -215 -65 0 -115 55
-115 126 0 28 8 44 34 70 39 39 86 45 136 19z m637 -289 c108 -51 133 -132
133 -428 l0 -208 -95 0 -95 0 -1 183 c0 118 -5 194 -13 216 -37 103 -180 98
-233 -9 -21 -41 -23 -58 -23 -217 l0 -174 -92 3 -93 3 0 320 0 320 88 3 87 3
0 -46 0 -47 32 33 c73 73 203 92 305 45z m-599 -313 l2 -323 -95 0 -95 0 0
318 c0 175 3 322 7 326 4 4 46 5 93 4 l85 -3 3 -322z"/>
<path d="M661 1084 c-90 -76 -12 -215 103 -183 47 13 76 51 76 101 0 32 -7 47
-34 74 -44 44 -99 47 -145 8z"/>
<path d="M0 640 l0 -450 275 0 275 0 0 85 0 85 -185 0 -185 0 0 365 0 365 -90
0 -90 0 0 -450z"/>
<path d="M1650 640 l0 -450 90 0 90 0 0 157 0 156 123 -156 122 -156 109 -1
c85 0 106 3 99 13 -16 20 -235 290 -251 309 -14 16 -5 28 94 133 60 64 120
129 133 146 l24 29 -111 0 -110 0 -114 -128 -113 -129 -3 264 -2 263 -90 0
-90 0 0 -450z"/>
<path d="M3480 935 c0 -85 -2 -155 -4 -155 -2 0 -25 12 -52 28 -99 55 -249 27
-337 -63 -66 -68 -82 -115 -82 -240 1 -96 4 -116 25 -160 56 -114 167 -180
292 -173 56 3 75 9 113 36 25 18 48 32 50 32 3 0 5 -11 5 -25 0 -25 1 -25 80
-25 l80 0 0 450 0 450 -85 0 -85 0 0 -155z m-62 -285 c49 -30 72 -75 72 -143
0 -97 -44 -156 -127 -173 -42 -8 -114 25 -143 66 -24 34 -37 110 -26 154 8 31
62 95 90 106 38 15 100 11 134 -10z"/>
<path d="M1230 831 c-42 -13 -84 -38 -109 -65 -33 -35 -41 -33 -41 14 l0 40
-80 0 -80 0 0 -315 0 -315 84 0 84 0 4 178 c3 165 5 179 27 215 44 71 141 98
196 55 48 -38 55 -70 55 -268 l0 -180 91 0 91 0 -4 233 c-3 227 -4 233 -30
289 -18 39 -38 65 -65 82 -60 40 -160 56 -223 37z"/>
<path d="M2510 827 c-91 -26 -172 -96 -212 -182 -19 -42 -23 -67 -23 -150 0
-89 3 -105 27 -151 35 -66 111 -134 177 -158 41 -14 72 -17 149 -14 106 4 176
28 240 83 l33 27 -60 44 -59 45 -37 -25 c-44 -30 -89 -40 -154 -34 -61 6 -108
39 -132 92 l-18 41 241 3 241 2 -5 78 c-8 133 -69 232 -173 281 -60 28 -171
36 -235 18z m188 -154 c31 -22 67 -87 57 -103 -7 -11 -297 -15 -308 -4 -10 10
14 61 42 88 15 15 41 31 57 36 44 14 122 5 152 -17z"/>
<path d="M640 505 l0 -315 90 0 90 0 0 315 0 315 -90 0 -90 0 0 -315z"/>
</g>
</svg>
