<svg xmlns="http://www.w3.org/2000/svg" xmlns:xlink="http://www.w3.org/1999/xlink" width="500" zoomAndPan="magnify" viewBox="0 0 375 374.999991" height="500" preserveAspectRatio="xMidYMid meet" version="1.2"><defs><clipPath id="645bb9783d"><path d="M 207 115.605469 L 301.839844 115.605469 L 301.839844 259.605469 L 207 259.605469 Z M 207 115.605469 "/></clipPath><clipPath id="37f1ce953b"><path d="M 145.089844 149 L 263 149 L 263 259.605469 L 145.089844 259.605469 Z M 145.089844 149 "/></clipPath><clipPath id="81bb91fc23"><path d="M 73.195312 115.605469 L 217 115.605469 L 217 259.605469 L 73.195312 259.605469 Z M 73.195312 115.605469 "/></clipPath><clipPath id="386219bc7a"><path d="M 73.195312 115.605469 L 154.945312 115.605469 L 154.945312 259.605469 L 73.195312 259.605469 Z M 73.195312 115.605469 "/></clipPath></defs><g id="da5c3dde9e"><g clip-rule="nonzero" clip-path="url(#645bb9783d)"><path style=" stroke:none;fill-rule:nonzero;fill:#023047;fill-opacity:1;" d="M 260.097656 228.953125 L 207.828125 227.34375 L 301.792969 259.371094 L 223.4375 115.632812 L 211.046875 138.359375 L 223.4375 161.242188 L 260.097656 228.953125 "/></g><g clip-rule="nonzero" clip-path="url(#37f1ce953b)"><path style=" stroke:none;fill-rule:nonzero;fill:#ffffff;fill-opacity:1;" d="M 181.085938 238.9375 L 205.964844 193.296875 L 217.339844 172.429688 L 204.941406 149.558594 L 145.082031 259.371094 L 262.203125 259.371094 L 181.085938 238.9375 "/></g><path style=" stroke:none;fill-rule:nonzero;fill:#219ebc;fill-opacity:1;" d="M 217.339844 172.429688 L 205.964844 193.296875 L 220.75 220.605469 L 243.832031 221.316406 L 217.339844 172.429688 "/><g clip-rule="nonzero" clip-path="url(#81bb91fc23)"><path style=" stroke:none;fill-rule:nonzero;fill:#ffb703;fill-opacity:1;" d="M 184.382812 148.214844 C 174.539062 128.34375 154.1875 115.605469 131.882812 115.605469 L 79.066406 115.605469 C 75.824219 115.605469 73.195312 118.234375 73.195312 121.472656 L 73.195312 227.105469 C 73.195312 228.660156 73.816406 230.152344 74.914062 231.257812 L 101.316406 257.660156 C 102.375 258.722656 103.847656 259.382812 105.46875 259.382812 L 158.277344 259.382812 C 190.636719 259.382812 216.960938 233.054688 216.960938 200.699219 C 216.96875 177.71875 203.664062 157.84375 184.382812 148.214844 Z M 178.824219 174.289062 C 178.824219 186.8125 173.9375 198.605469 165.085938 207.488281 C 156.1875 216.355469 144.394531 221.238281 131.875 221.238281 L 111.339844 221.238281 L 111.339844 153.75 L 158.289062 153.75 C 164.351562 153.75 170.140625 154.949219 175.460938 157.046875 C 177.652344 162.523438 178.824219 168.300781 178.824219 174.289062 Z M 166.507812 142.660156 C 163.8125 142.277344 161.085938 142.011719 158.289062 142.011719 L 107.898438 142.011719 L 93.230469 127.34375 L 131.882812 127.34375 C 145.261719 127.34375 157.761719 133.085938 166.507812 142.660156 Z M 84.933594 135.636719 L 99.605469 150.308594 L 99.605469 239.34375 L 84.933594 224.671875 Z M 158.285156 247.644531 L 111.339844 247.644531 L 111.339844 232.976562 L 131.882812 232.976562 C 147.53125 232.976562 162.265625 226.875 173.386719 215.78125 C 184.460938 204.671875 190.558594 189.9375 190.558594 174.289062 C 190.558594 171.523438 190.300781 168.808594 189.925781 166.113281 C 199.304688 174.703125 205.230469 187.003906 205.230469 200.699219 C 205.230469 226.578125 184.171875 247.644531 158.285156 247.644531 Z M 158.285156 247.644531 "/></g><g clip-rule="nonzero" clip-path="url(#386219bc7a)"><path style=" stroke:none;fill-rule:nonzero;fill:#fb8500;fill-opacity:1;" d="M 184.382812 148.214844 C 174.539062 128.34375 154.1875 115.605469 131.882812 115.605469 L 79.066406 115.605469 C 75.824219 115.605469 73.195312 118.234375 73.195312 121.472656 L 73.195312 227.105469 C 73.195312 228.660156 73.816406 230.152344 74.914062 231.257812 L 101.316406 257.660156 C 102.375 258.722656 103.847656 259.382812 105.46875 259.382812 L 158.277344 259.382812 C 190.636719 259.382812 216.960938 233.054688 216.960938 200.699219 C 216.96875 177.71875 203.664062 157.84375 184.382812 148.214844 Z M 178.824219 174.289062 C 178.824219 186.8125 173.9375 198.605469 165.085938 207.488281 C 156.1875 216.355469 144.394531 221.238281 131.875 221.238281 L 111.339844 221.238281 L 111.339844 153.75 L 158.289062 153.75 C 164.351562 153.75 170.140625 154.949219 175.460938 157.046875 C 177.652344 162.523438 178.824219 168.300781 178.824219 174.289062 Z M 166.507812 142.660156 C 163.8125 142.277344 161.085938 142.011719 158.289062 142.011719 L 107.898438 142.011719 L 93.230469 127.34375 L 131.882812 127.34375 C 145.261719 127.34375 157.761719 133.085938 166.507812 142.660156 Z M 84.933594 135.636719 L 99.605469 150.308594 L 99.605469 239.34375 L 84.933594 224.671875 Z M 158.285156 247.644531 L 111.339844 247.644531 L 111.339844 232.976562 L 131.882812 232.976562 C 147.53125 232.976562 162.265625 226.875 173.386719 215.78125 C 184.460938 204.671875 190.558594 189.9375 190.558594 174.289062 C 190.558594 171.523438 190.300781 168.808594 189.925781 166.113281 C 199.304688 174.703125 205.230469 187.003906 205.230469 200.699219 C 205.230469 226.578125 184.171875 247.644531 158.285156 247.644531 Z M 158.285156 247.644531 "/></g></g></svg>