<?xml version="1.0" standalone="no"?>
<!DOCTYPE svg PUBLIC "-//W3C//DTD SVG 20010904//EN"
 "http://www.w3.org/TR/2001/REC-SVG-20010904/DTD/svg10.dtd">
<svg version="1.0" xmlns="http://www.w3.org/2000/svg"
 width="768.000000pt" height="768.000000pt" viewBox="0 0 768.000000 768.000000"
 preserveAspectRatio="xMidYMid meet">

<g transform="translate(0.000000,768.000000) scale(0.100000,-0.100000)"
fill="#000000" stroke="none">
<path d="M435 7654 c-8 -13 -15 -27 -15 -31 0 -3 -9 -17 -21 -29 -22 -24 -18
-47 6 -37 23 8 19 -30 -6 -61 -17 -21 -24 -24 -35 -15 -22 18 -26 6 -12 -44
12 -45 11 -47 -18 -76 -16 -17 -39 -31 -51 -31 -25 0 -43 -27 -43 -63 0 -14
-7 -27 -15 -31 -8 -3 -15 -10 -15 -15 0 -13 29 -3 52 17 15 12 23 13 48 2 16
-7 43 -10 60 -8 22 3 30 1 31 -11 0 -11 3 -10 8 4 5 11 20 22 36 25 16 3 30
11 33 17 4 13 -3 17 -50 27 -17 4 -29 15 -35 33 -8 23 -4 35 23 73 18 25 41
53 50 64 12 13 13 21 5 29 -6 6 -11 26 -11 43 0 28 5 34 33 42 57 18 74 20 91
10 18 -10 22 -53 6 -63 -6 -4 -8 -15 -5 -26 5 -13 -3 -27 -24 -47 -29 -26 -30
-30 -19 -60 14 -36 20 -39 38 -17 7 8 20 15 29 15 28 0 63 46 55 74 -4 16 0
33 10 48 9 12 16 30 16 39 0 9 11 24 25 33 20 13 25 25 25 57 l0 40 -145 -2
c-139 -2 -145 -3 -160 -25z m55 -8 c0 -3 -4 -8 -10 -11 -5 -3 -10 -1 -10 4 0
6 5 11 10 11 6 0 10 -2 10 -4z"/>
<path d="M1185 7661 c-4 -14 -15 -21 -31 -21 -28 0 -32 -25 -9 -56 20 -27 18
-67 -5 -92 -11 -12 -20 -26 -20 -32 0 -5 -9 -10 -20 -10 -23 0 -42 -31 -30
-49 6 -10 12 -7 25 13 18 26 43 34 61 17 13 -13 33 4 74 66 19 28 45 56 57 62
22 10 33 41 14 41 -5 0 -18 17 -28 38 -16 29 -27 38 -51 40 -23 2 -32 -2 -37
-17z"/>
<path d="M1460 7672 c0 -4 5 -13 11 -19 8 -8 5 -13 -10 -18 -17 -5 -19 -10
-11 -31 8 -20 6 -24 -8 -25 -14 0 -14 -2 -2 -6 8 -3 22 -11 30 -19 12 -10 19
-9 40 9 14 13 36 39 50 60 27 39 40 47 40 21 0 -8 5 -12 10 -9 6 3 10 15 10
26 0 17 -7 19 -80 19 -44 0 -80 -4 -80 -8z"/>
<path d="M2493 7673 c9 -2 25 -2 35 0 9 3 1 5 -18 5 -19 0 -27 -2 -17 -5z"/>
<path d="M5521 7664 c0 -11 3 -14 6 -6 3 7 2 16 -1 19 -3 4 -6 -2 -5 -13z"/>
<path d="M5560 7665 c0 -8 -8 -22 -19 -32 -10 -10 -21 -29 -25 -43 -6 -25 -6
-25 6 -2 6 12 26 32 45 43 37 23 44 49 13 49 -11 0 -20 -7 -20 -15z"/>
<path d="M5712 7673 c-17 -3 -21 -9 -17 -24 4 -12 2 -19 -6 -19 -7 0 -9 -3 -6
-6 4 -4 18 1 32 10 29 19 53 12 34 -10 -14 -17 -12 -19 19 -28 20 -7 22 -4 21
21 -1 15 2 36 6 46 6 14 2 17 -26 16 -19 -1 -44 -4 -57 -6z"/>
<path d="M6400 7654 c0 -14 6 -24 14 -24 8 0 17 -7 20 -16 8 -20 27 -8 24 14
-2 12 4 17 19 17 13 0 23 3 23 8 0 4 0 11 0 16 0 5 -22 9 -50 9 -46 0 -50 -2
-50 -24z"/>
<path d="M6956 7645 c-9 -20 -17 -52 -18 -73 l-3 -37 55 0 c72 -1 100 9 100
36 0 16 5 20 20 16 13 -3 20 0 20 9 0 8 -9 14 -20 14 -33 0 -70 22 -76 47 -5
17 -13 23 -35 23 -23 0 -31 -6 -43 -35z"/>
<path d="M7646 7656 c-7 -30 -37 -38 -72 -20 -28 15 -54 5 -54 -21 0 -8 -6
-15 -12 -18 -8 -2 2 -18 27 -41 22 -20 45 -34 53 -31 7 2 10 0 7 -5 -3 -5 7
-12 22 -16 15 -4 36 -16 45 -28 17 -20 18 -17 18 92 0 89 -3 112 -14 112 -8 0
-17 -11 -20 -24z"/>
<path d="M2046 7663 c-11 -11 -6 -23 9 -23 8 0 15 4 15 9 0 13 -16 22 -24 14z"/>
<path d="M2080 7650 c0 -5 5 -10 10 -10 6 0 10 5 10 10 0 6 -4 10 -10 10 -5 0
-10 -4 -10 -10z"/>
<path d="M6040 7641 c0 -24 -23 -43 -43 -35 -11 4 -18 -2 -22 -19 -4 -14 -13
-28 -21 -31 -8 -3 -14 -10 -14 -16 0 -12 50 -5 80 11 8 4 23 10 34 13 14 5 17
12 11 29 -4 12 -6 32 -6 45 0 12 -4 22 -9 22 -6 0 -10 -8 -10 -19z"/>
<path d="M4157 7644 c-13 -13 -7 -42 9 -48 28 -11 35 -6 32 21 -3 27 -26 41
-41 27z"/>
<path d="M7155 7590 c-8 -13 3 -30 20 -30 23 0 25 15 5 28 -12 7 -21 8 -25 2z"/>
<path d="M2016 7571 c-17 -18 -16 -20 4 -26 25 -8 57 16 46 34 -11 17 -31 13
-50 -8z"/>
<path d="M233 7565 c-19 -21 -17 -49 3 -41 9 3 18 6 20 6 2 0 4 11 4 25 0 28
-9 31 -27 10z"/>
<path d="M926 7564 c-10 -26 -7 -34 15 -34 15 0 19 4 15 16 -3 9 -6 20 -6 25
0 15 -17 10 -24 -7z"/>
<path d="M5060 7534 c0 -8 5 -12 10 -9 6 3 10 10 10 16 0 5 -4 9 -10 9 -5 0
-10 -7 -10 -16z"/>
<path d="M18 7533 c-15 -4 -18 -16 -18 -79 0 -70 12 -96 25 -56 3 11 16 24 29
30 20 9 24 18 24 61 0 54 -6 58 -60 44z"/>
<path d="M7257 7510 c-31 -25 -36 -68 -9 -76 9 -3 29 -12 43 -20 14 -7 29 -11
33 -7 11 11 7 42 -7 50 -8 4 -13 21 -13 37 1 37 -14 42 -47 16z"/>
<path d="M5915 7510 c-3 -5 -3 -15 1 -21 6 -11 23 6 24 24 0 10 -18 9 -25 -3z"/>
<path d="M4563 7503 c-21 -8 -15 -22 7 -16 11 3 20 9 20 14 0 10 -8 10 -27 2z"/>
<path d="M5193 7494 c-6 -6 -13 -22 -15 -35 -2 -16 -9 -22 -18 -20 -8 3 -31 5
-50 5 -33 1 -35 -1 -35 -34 0 -29 4 -36 23 -38 12 -2 22 -9 22 -17 0 -11 20
-25 36 -25 3 0 4 14 2 32 -2 25 1 33 15 36 10 2 24 -3 30 -11 7 -8 35 -17 64
-19 47 -4 57 -10 96 -51 44 -47 67 -58 67 -34 0 9 2 9 8 0 4 -6 30 -13 57 -15
45 -3 52 -7 76 -43 15 -21 38 -42 50 -46 39 -10 100 2 105 20 3 9 10 24 16 35
6 12 6 22 -1 29 -6 6 -11 19 -11 29 0 13 -8 18 -25 18 -14 0 -25 5 -25 10 0 6
-11 10 -25 10 -15 0 -29 9 -36 22 -8 14 -14 18 -17 10 -7 -22 -32 -13 -32 13
0 28 -24 34 -34 9 -6 -15 -8 -15 -26 1 -16 14 -24 15 -51 6 -27 -9 -39 -8 -69
8 -30 15 -38 16 -46 6 -7 -10 -20 -11 -49 -5 -35 7 -37 9 -17 15 24 8 28 20
11 30 -5 4 -14 17 -19 30 -10 26 -60 38 -77 19z"/>
<path d="M6385 7499 c-4 -5 -18 -14 -31 -19 -13 -5 -26 -21 -30 -34 -4 -18
-12 -25 -27 -23 -16 1 -24 -6 -33 -32 -7 -23 -22 -40 -43 -50 -17 -8 -31 -22
-31 -32 0 -21 36 -49 62 -49 11 0 18 -8 18 -20 0 -11 6 -20 13 -20 8 0 12 18
12 60 0 69 9 82 59 83 26 1 41 -6 58 -24 13 -14 47 -41 76 -59 44 -28 52 -38
52 -63 0 -16 9 -44 20 -61 20 -33 25 -110 7 -133 -11 -15 -1 -33 18 -33 7 0
16 -9 20 -19 10 -33 42 -33 55 0 7 16 16 29 20 29 5 0 16 7 24 16 15 14 16 14
16 0 0 -9 9 -16 20 -16 16 0 20 6 18 26 -4 34 16 41 39 15 9 -12 21 -21 26
-21 5 0 15 -7 23 -15 26 -25 47 -19 40 11 -6 21 -1 33 19 54 22 23 24 31 16
54 -15 37 -41 45 -59 18 -20 -30 -60 -29 -64 1 -2 14 -11 23 -25 25 -12 2 -25
12 -28 22 -3 10 -13 21 -21 24 -12 5 -15 2 -10 -9 3 -9 2 -14 -2 -13 -48 23
-61 34 -65 54 -2 13 2 29 9 35 18 15 18 43 -1 79 -13 25 -19 28 -38 21 -23 -9
-25 -21 -12 -83 6 -32 4 -38 -9 -38 -10 0 -19 11 -22 29 -6 30 -25 41 -72 41
-21 0 -23 4 -22 38 4 84 2 91 -40 117 -45 28 -46 29 -55 14z"/>
<path d="M6755 7489 c-9 -13 -7 -15 28 -23 31 -7 35 1 10 20 -22 16 -30 17
-38 3z"/>
<path d="M6875 7491 c-23 -5 -31 -13 -36 -39 -3 -17 -4 -32 0 -32 13 0 33 18
29 26 -1 5 5 10 14 12 12 2 21 -6 28 -22 8 -21 43 -46 66 -46 10 0 2 31 -18
69 -22 41 -28 44 -83 32z"/>
<path d="M3005 7470 c-3 -5 -4 -14 -1 -19 3 -5 -1 -11 -9 -15 -25 -9 -17 -26
14 -26 31 0 54 19 43 35 -16 23 -40 36 -47 25z"/>
<path d="M1544 7415 c0 -30 1 -55 1 -55 0 0 18 9 40 20 22 11 50 20 64 20 24
0 24 0 5 21 -14 16 -26 19 -52 14 -28 -5 -34 -3 -39 14 -10 38 -19 22 -19 -34z"/>
<path d="M3390 7460 c0 -5 14 -32 31 -60 17 -27 28 -54 24 -60 -4 -7 -35 -9
-85 -5 -43 3 -81 1 -84 -4 -3 -4 -33 -11 -66 -15 -34 -4 -100 -16 -148 -26
-104 -23 -105 -23 -96 -7 4 6 -1 4 -12 -5 -23 -20 -104 -49 -116 -42 -15 9
-52 -4 -75 -25 -30 -28 -101 -52 -122 -41 -9 5 -24 11 -33 14 -33 10 -68 81
-68 138 l0 53 -59 28 c-32 15 -61 27 -64 27 -4 0 -18 -10 -33 -22 -14 -13 -34
-25 -44 -28 -17 -5 -17 -7 -2 -40 14 -28 24 -36 50 -38 17 -2 32 -8 32 -14 0
-6 7 -19 15 -28 8 -9 18 -38 21 -63 6 -40 3 -52 -20 -85 -24 -36 -26 -43 -21
-129 l5 -91 -41 -52 c-22 -28 -48 -54 -57 -57 -49 -16 -119 -58 -115 -69 9
-24 -34 -36 -72 -20 -32 14 -35 18 -25 36 9 17 8 20 -10 20 -11 0 -20 -7 -20
-15 0 -11 -7 -14 -24 -9 -19 4 -29 -2 -55 -34 -19 -25 -29 -46 -25 -56 7 -19
2 -19 54 -1 49 17 132 11 150 -11 13 -15 -1 -77 -25 -111 -21 -30 -67 -51 -91
-42 -10 4 -34 8 -51 8 -27 1 -34 -4 -39 -24 -3 -14 -10 -25 -15 -25 -5 0 -14
-11 -20 -24 -9 -19 -8 -29 5 -47 19 -27 21 -62 5 -91 -13 -23 -4 -37 13 -20
17 17 48 15 48 -4 0 -8 -4 -12 -10 -9 -13 8 -13 2 2 -30 6 -14 17 -25 23 -25
19 0 26 -166 9 -207 -7 -17 -10 -41 -7 -53 5 -18 1 -16 -26 9 -32 30 -33 56
-3 65 10 2 6 4 -7 3 -15 -1 -31 -13 -43 -32 -26 -43 -42 -78 -43 -95 -1 -8 -3
-21 -4 -27 0 -7 -10 -13 -21 -13 -11 0 -23 -6 -26 -13 -7 -19 -79 -15 -102 6
-19 18 -22 18 -54 1 -37 -19 -88 -64 -88 -78 0 -5 -7 -14 -15 -20 -8 -6 -23
-34 -33 -62 -9 -28 -29 -62 -44 -77 l-27 -27 -36 35 c-40 39 -69 45 -85 15 -8
-15 -17 -19 -35 -14 -32 8 -32 -7 -1 -41 14 -15 26 -41 28 -58 3 -29 7 -33 43
-38 22 -4 60 -17 85 -30 25 -13 49 -22 53 -21 21 6 46 -22 56 -61 14 -57 33
-74 67 -59 24 11 24 13 8 37 -14 21 -14 29 -3 55 8 16 18 30 22 30 5 0 20 8
33 19 23 18 23 19 4 36 -11 10 -20 26 -20 37 0 10 -3 18 -7 18 -5 0 -18 15
-30 33 -25 37 -22 71 10 110 21 24 25 25 72 17 28 -4 58 -11 68 -15 12 -5 17
-2 17 9 0 17 20 21 35 7 6 -4 27 -11 48 -14 32 -5 37 -3 37 14 0 10 5 19 11
19 7 0 9 -13 5 -37 -3 -21 -9 -63 -14 -93 -9 -58 -21 -88 -49 -116 -11 -11
-18 -33 -18 -60 -1 -37 -6 -47 -50 -87 -47 -44 -53 -46 -107 -47 -32 0 -58 -4
-58 -9 0 -21 -43 -21 -100 0 -49 17 -59 25 -55 39 5 16 1 17 -31 10 -41 -10
-67 -30 -46 -37 6 -3 12 -10 12 -16 0 -7 11 -24 24 -38 17 -20 29 -25 53 -22
41 6 54 -15 14 -23 -27 -6 -31 -11 -31 -39 0 -24 6 -35 25 -45 22 -12 30 -12
54 3 32 19 67 22 76 7 3 -5 15 -10 25 -10 11 0 27 -11 35 -24 15 -22 14 -27
-6 -66 l-22 -42 24 -23 c22 -22 28 -23 67 -13 27 7 42 16 43 27 1 9 5 3 8 -14
6 -22 3 -34 -8 -43 -12 -10 -13 -16 -4 -31 7 -11 15 -43 18 -73 9 -81 15 -99
26 -92 7 4 8 -12 4 -52 -11 -87 -12 -89 -24 -86 -6 1 -11 -1 -11 -5 0 -5 -25
-6 -55 -5 -45 3 -56 7 -54 20 3 31 -1 40 -24 69 -22 25 -23 34 -17 88 8 67 -2
85 -50 85 -16 0 -35 10 -49 26 -24 27 -39 28 -55 0 -9 -14 -6 -21 12 -36 22
-18 22 -20 5 -39 -45 -49 -55 -71 -33 -71 17 0 50 34 50 51 0 21 31 34 42 17
13 -21 9 -54 -7 -68 -8 -7 -15 -18 -15 -25 0 -7 -7 -18 -15 -25 -12 -10 -18
-10 -30 0 -12 10 -15 10 -15 -3 0 -8 8 -17 19 -20 12 -3 20 -17 24 -45 7 -40
20 -52 59 -52 11 0 22 -8 25 -19 5 -18 48 -56 88 -76 28 -14 30 -55 5 -82 -27
-30 -26 -33 13 -26 25 4 49 -2 89 -22 73 -36 105 -67 116 -113 5 -20 15 -62
22 -92 7 -30 18 -66 25 -80 8 -14 17 -43 21 -65 12 -65 21 -15 23 130 2 126 7
165 36 290 18 78 33 204 34 280 1 33 6 94 11 135 5 41 11 91 12 110 2 19 11
43 20 52 10 10 18 33 18 51 0 21 8 41 20 52 11 10 20 28 20 40 0 25 22 75 33
75 4 0 7 5 7 12 0 6 6 19 14 27 17 20 36 124 41 221 5 114 15 159 37 171 13 7
17 16 13 30 -5 15 3 29 30 55 21 19 45 34 53 32 22 -4 119 91 126 122 9 45 12
100 5 100 -10 0 -16 91 -6 97 4 2 15 -1 23 -8 21 -18 30 -2 11 19 -19 20 -20
19 73 96 19 16 33 31 30 33 -3 2 10 11 29 21 26 12 36 13 39 4 9 -27 24 -10
20 23 -4 32 -2 35 22 36 66 2 83 6 91 22 6 11 22 17 43 17 21 0 36 6 40 15 3
8 14 15 25 15 10 0 42 16 70 35 29 19 58 32 66 28 8 -3 15 -1 15 5 0 30 198
23 228 -8 35 -36 58 -41 144 -30 45 5 86 10 91 10 4 0 6 4 2 9 -3 5 -1 13 5
16 6 4 9 2 8 -3 -4 -13 3 -15 25 -8 29 10 41 16 72 35 17 11 42 20 58 20 17 1
27 6 27 16 0 10 10 15 34 15 19 0 38 5 41 10 3 6 24 10 46 10 21 0 39 4 39 9
0 14 37 20 49 8 7 -7 15 -6 26 3 11 9 22 10 42 2 16 -6 64 -14 108 -17 44 -4
97 -8 118 -10 41 -3 67 -19 67 -41 0 -10 8 -12 30 -7 24 4 30 2 30 -11 0 -10
4 -15 9 -11 6 3 29 -13 53 -35 24 -22 49 -40 56 -40 6 0 12 -6 12 -14 0 -7 9
-16 20 -19 12 -3 20 -14 20 -25 0 -13 10 -24 30 -31 17 -6 34 -21 40 -35 5
-15 14 -26 20 -26 5 0 10 -9 10 -20 0 -11 6 -29 12 -40 18 -28 -4 -46 -59 -49
-23 -2 -14 -16 17 -28 19 -7 32 -8 36 -2 3 6 14 7 24 4 12 -4 26 1 37 12 10
10 26 17 36 15 9 -2 17 1 17 7 0 6 8 11 18 11 18 0 48 -38 37 -48 -3 -4 -10 0
-15 8 -14 22 -32 -2 -28 -36 2 -21 9 -30 25 -32 14 -2 26 -16 37 -42 13 -33
53 -72 57 -55 1 3 2 10 3 15 0 6 4 10 9 10 43 0 43 0 25 -11 -22 -12 -22 -28
-2 -54 15 -20 16 -19 12 5 -2 20 1 24 22 25 31 0 46 -19 55 -71 l8 -39 -32 29
c-61 58 -52 -5 10 -65 23 -23 39 -48 39 -62 0 -13 7 -32 15 -43 18 -24 19 -34
1 -34 -14 0 -31 -43 -27 -70 1 -9 -1 -11 -6 -5 -12 16 -45 18 -54 4 -5 -9 -11
-10 -21 -2 -9 8 -18 6 -31 -7 -18 -17 -18 -19 -1 -28 13 -7 18 -20 16 -45 -2
-21 3 -39 13 -47 11 -9 12 -17 4 -32 -9 -17 -7 -25 15 -45 14 -13 26 -32 26
-43 0 -10 7 -23 15 -28 22 -12 8 -42 -20 -42 -12 0 -27 6 -33 13 -12 14 -62
21 -62 9 0 -4 6 -14 13 -21 10 -11 6 -12 -21 -6 -18 4 -47 8 -65 10 -98 11
-131 16 -138 21 -5 3 -9 0 -9 -6 0 -8 -9 -10 -24 -6 -12 3 -26 3 -29 -1 -11
-10 -105 -6 -152 7 -47 13 -40 14 -190 -29 -16 -5 -47 -12 -68 -16 -21 -3 -43
-14 -50 -25 -6 -11 -19 -20 -28 -20 -21 0 -65 -46 -48 -52 9 -3 9 -9 0 -25 -6
-12 -11 -31 -11 -41 0 -11 -11 -30 -25 -43 -20 -20 -25 -34 -25 -76 0 -31 -5
-55 -13 -60 -6 -4 -25 -28 -42 -52 -16 -24 -35 -45 -41 -48 -13 -5 -22 -32
-30 -96 -6 -44 -28 -78 -48 -74 -12 2 -12 -8 4 -98 6 -39 6 -61 0 -63 -18 -6
-11 -22 15 -34 14 -6 25 -19 25 -28 0 -10 9 -29 21 -44 l20 -26 -33 7 c-18 3
-34 10 -36 15 -2 4 -15 8 -28 8 -21 0 -24 -5 -24 -37 0 -34 4 -40 38 -58 23
-13 38 -28 40 -43 3 -21 1 -22 -17 -13 -25 14 -37 -2 -16 -23 9 -9 11 -17 5
-21 -12 -8 -13 -75 -1 -94 5 -7 14 -10 20 -7 6 4 11 3 11 -3 0 -6 7 -8 15 -5
19 8 19 30 0 38 -18 6 -9 36 11 36 8 0 19 12 25 27 16 41 30 55 44 43 7 -6 28
-8 47 -6 29 4 38 0 55 -23 30 -39 141 -68 158 -41 9 14 -17 80 -31 80 -6 0
-23 18 -38 41 -23 34 -25 43 -14 56 10 13 8 19 -15 39 -19 16 -27 32 -27 56 0
25 3 29 10 18 9 -13 10 -13 10 0 0 8 -9 29 -20 45 -30 46 -24 85 8 53 7 -7 12
-9 12 -4 0 4 12 -1 28 -12 15 -10 47 -26 71 -36 25 -10 50 -24 56 -33 15 -20
35 -9 35 18 0 18 2 18 33 6 45 -19 189 -45 275 -50 56 -3 75 -1 81 11 7 12 11
12 29 1 17 -11 28 -11 55 -1 18 7 52 12 75 12 32 0 40 3 36 14 -6 14 7 20 100
40 22 5 27 11 23 26 -8 29 2 30 73 11 128 -36 124 -32 117 -106 -4 -36 -3 -65
2 -65 11 0 31 -74 36 -129 1 -24 9 -47 16 -51 7 -5 14 -17 16 -27 9 -61 17
-89 28 -100 7 -6 10 -23 8 -37 -3 -15 -1 -26 5 -26 6 0 11 -12 11 -27 1 -58 9
-144 14 -150 4 -3 -1 -19 -9 -35 -14 -27 -16 -28 -32 -11 -9 9 -17 22 -17 28
0 7 -13 23 -27 36 -20 17 -28 35 -30 62 -1 23 -7 37 -15 37 -8 0 -16 7 -19 15
-9 21 -24 19 -24 -4 0 -11 -4 -23 -10 -26 -15 -9 -12 -25 5 -25 10 0 15 -10
15 -27 0 -16 9 -56 20 -90 20 -65 18 -98 -6 -89 -19 7 -18 -8 1 -24 21 -17 19
-46 -5 -70 -11 -11 -20 -33 -20 -48 0 -15 -5 -33 -12 -40 -8 -8 -8 -15 0 -24
7 -8 7 -26 2 -48 -4 -19 -8 -27 -9 -17 -1 23 -31 22 -31 -1 0 -11 9 -29 20
-42 21 -24 27 -46 10 -35 -16 10 -24 -45 -12 -83 9 -29 9 -41 -4 -59 -8 -13
-12 -28 -9 -33 6 -9 -11 -56 -41 -112 -8 -15 -14 -43 -12 -63 2 -34 -3 -42
-37 -60 -6 -3 -5 -7 3 -11 19 -9 14 -52 -8 -66 -11 -7 -20 -19 -20 -27 0 -7
-16 -36 -36 -64 -31 -43 -34 -51 -20 -59 21 -12 22 -42 1 -34 -11 4 -15 -1
-15 -18 0 -13 -8 -34 -18 -46 -17 -20 -20 -21 -34 -7 -14 15 -17 14 -28 -13
-7 -17 -18 -30 -25 -30 -15 0 -66 -62 -116 -137 -18 -29 -37 -53 -41 -53 -5 0
-8 -8 -8 -17 0 -10 -23 -42 -50 -72 -30 -31 -50 -62 -50 -76 0 -32 -28 -95
-45 -102 -8 -3 -15 -9 -15 -15 0 -5 -11 -19 -25 -32 -14 -13 -25 -28 -25 -35
0 -6 -4 -11 -10 -11 -5 0 -10 6 -10 14 0 8 -4 18 -10 21 -5 3 -7 0 -4 -8 3 -8
-2 -17 -11 -20 -11 -5 -14 -14 -9 -32 5 -22 4 -24 -12 -18 -11 3 -23 13 -28
21 -7 12 -12 7 -23 -19 -9 -19 -16 -40 -16 -46 0 -8 -9 -10 -24 -7 -22 6 -24
4 -18 -22 3 -16 2 -23 -1 -16 -9 19 -27 14 -21 -7 2 -10 1 -25 -4 -32 -7 -11
-9 -10 -9 3 0 11 -5 15 -15 12 -9 -4 -15 -1 -15 7 0 11 -2 11 -12 0 -10 -11
-10 -14 0 -18 15 -6 16 -23 2 -23 -6 0 -15 12 -21 26 -5 15 -12 25 -14 22 -7
-7 7 -48 16 -48 5 0 9 -7 9 -15 0 -25 -20 -17 -31 13 -7 15 -13 22 -16 15 -3
-7 -11 -13 -19 -13 -8 0 -14 -7 -14 -16 0 -8 -16 -32 -35 -52 -19 -20 -35 -47
-35 -59 0 -27 -43 -42 -71 -24 -23 14 -27 14 -32 -1 -2 -7 -2 -3 -1 9 4 24
-11 40 -21 22 -4 -5 -13 -8 -21 -5 -8 3 -14 1 -14 -4 0 -6 7 -10 15 -10 30 0
13 -45 -25 -65 -25 -13 -29 -13 -34 0 -5 13 -9 12 -26 -5 -20 -20 -57 -20 -70
1 -10 14 -70 7 -80 -10 -7 -13 -10 -11 -20 13 -11 31 -5 50 10 26 5 -8 12 -11
16 -7 11 11 -22 41 -35 33 -6 -4 -11 -13 -11 -21 0 -17 -40 -7 -57 14 -7 9
-13 13 -13 8 0 -11 23 -51 35 -59 11 -8 11 -8 -23 -12 -16 -2 -21 1 -18 11 5
11 0 13 -17 8 -24 -8 -24 -8 -51 -6 -13 1 -17 6 -13 22 4 15 2 19 -9 15 -10
-4 -14 2 -14 21 0 29 -16 21 -22 -11 -4 -23 -35 -30 -45 -11 -9 15 -62 23 -79
12 -15 -9 -38 19 -31 37 8 20 -3 28 -20 15 -7 -6 -13 -7 -13 -2 0 5 -7 18 -15
29 -14 18 -14 18 -8 -3 4 -17 1 -23 -11 -23 -10 0 -15 4 -11 10 6 10 -29 50
-45 50 -5 0 -7 -6 -4 -14 6 -16 -28 -27 -47 -15 -10 6 -11 9 -1 9 6 0 12 5 12
10 0 6 -7 10 -16 10 -14 0 -14 3 -4 15 7 8 19 15 26 15 8 0 14 7 14 15 0 8 -5
15 -11 15 -6 0 -9 7 -6 14 4 10 1 13 -9 9 -8 -3 -26 5 -40 17 l-24 23 0 -21
c0 -15 -4 -20 -16 -15 -11 4 -15 15 -12 35 5 32 4 32 -59 7 -39 -16 -47 -10
-33 25 8 21 7 31 -4 41 -7 8 -17 11 -20 8 -4 -4 -22 -8 -42 -8 -30 -2 -34 1
-28 17 5 17 3 19 -17 13 -17 -6 -21 -4 -16 8 4 11 1 14 -7 11 -7 -3 -21 2 -30
11 -9 9 -16 13 -16 8 0 -4 -14 7 -30 25 -17 18 -30 38 -30 43 0 6 -4 8 -9 4
-12 -7 -41 22 -41 40 0 8 -16 22 -35 31 -20 9 -40 26 -46 38 -10 20 -9 20 5 2
15 -18 36 -14 36 7 0 7 -10 18 -21 26 -17 10 -23 10 -29 1 -6 -9 -11 -7 -19 8
-15 29 -14 37 4 22 8 -7 15 -8 15 -4 0 5 -9 15 -20 22 -12 7 -20 8 -20 2 0 -5
-4 -10 -10 -10 -5 0 -10 9 -10 20 0 11 -6 20 -14 20 -8 0 -27 15 -42 33 -15
17 -31 31 -37 29 -20 -6 -47 10 -47 28 0 11 -11 35 -24 54 -19 28 -25 32 -30
20 -3 -9 0 -30 8 -47 8 -18 17 -48 21 -67 9 -50 36 -110 50 -110 15 0 65 -52
65 -68 0 -18 27 -14 35 6 6 15 8 15 26 -7 10 -13 19 -31 19 -41 0 -19 42 -42
63 -34 18 7 60 -40 55 -63 -2 -11 5 -24 19 -34 20 -13 21 -18 9 -34 -13 -18
-15 -16 -42 23 -33 47 -51 57 -70 41 -16 -13 -19 -49 -4 -49 6 0 15 -10 20
-22 8 -22 9 -22 9 5 1 35 11 34 36 -3 11 -16 30 -32 42 -35 25 -6 31 -30 11
-39 -10 -3 -8 -9 5 -19 10 -9 18 -19 17 -23 -1 -5 4 -10 11 -13 8 -2 10 2 6
13 -9 22 17 21 43 -1 20 -17 28 -39 11 -29 -5 3 -14 -1 -21 -9 -9 -11 -8 -19
4 -37 9 -13 20 -23 24 -23 4 0 7 -4 7 -10 0 -5 5 -17 10 -25 24 -37 34 -63 29
-72 -9 -14 25 -48 42 -41 8 3 14 0 14 -7 0 -7 6 -10 13 -7 10 4 13 -2 9 -19
-2 -13 -10 -24 -17 -24 -7 0 -18 -7 -25 -15 -7 -8 -23 -15 -36 -15 l-24 0 20
-20 c11 -11 27 -20 36 -20 14 0 16 -9 12 -55 -5 -65 6 -78 37 -44 12 13 30 29
40 35 16 9 19 20 16 60 -1 27 1 45 6 41 4 -5 8 -14 8 -20 0 -5 6 -12 13 -15 6
-2 12 3 12 12 0 9 7 16 15 16 19 0 49 -46 41 -65 -3 -8 -1 -15 4 -15 6 0 10
-16 10 -36 0 -20 4 -33 10 -29 5 3 12 -6 16 -21 l7 -27 19 22 c17 22 19 22 43
7 30 -20 33 -46 6 -53 -18 -4 -23 -25 -9 -38 3 -3 24 -2 46 3 22 5 46 6 53 1
10 -6 11 -9 2 -9 -7 0 -13 -7 -13 -15 0 -8 5 -15 11 -15 5 0 7 -4 4 -10 -10
-16 -22 -12 -28 10 -3 11 -10 20 -15 20 -16 0 -23 -32 -10 -47 7 -8 11 -28 10
-44 -1 -16 3 -29 8 -29 6 0 10 8 8 18 -1 9 2 19 7 22 6 3 11 -5 13 -17 2 -12
9 -23 15 -26 9 -3 11 7 8 35 -3 37 -2 40 18 33 15 -5 21 -2 21 9 0 9 5 16 10
16 20 0 9 17 -27 43 -25 18 -32 27 -20 27 19 0 23 30 6 47 -16 16 5 24 26 9
14 -10 15 -16 6 -34 -10 -18 -8 -24 14 -38 19 -12 25 -25 25 -51 0 -28 3 -34
16 -29 9 4 23 1 30 -5 18 -15 20 11 2 29 -9 9 -9 12 0 12 7 0 31 -18 54 -40
48 -45 55 -47 61 -22 4 14 6 13 12 -6 6 -18 14 -22 34 -20 17 2 26 9 25 20 -1
14 2 15 17 8 11 -7 16 -16 12 -26 -5 -13 -1 -15 18 -9 24 7 24 7 4 -10 -13
-10 -14 -15 -5 -12 8 2 27 -9 42 -25 23 -26 28 -28 46 -17 18 11 23 10 42 -12
l21 -24 -6 48 c-4 29 -2 47 4 47 6 0 8 -7 5 -15 -4 -8 -2 -15 4 -15 6 0 12 5
14 11 3 9 10 9 27 0 12 -7 29 -10 37 -7 17 7 18 -6 2 -22 -10 -10 -10 -17 0
-32 10 -17 9 -25 -4 -45 -9 -14 -20 -25 -25 -25 -5 0 -9 -7 -9 -16 0 -10 -6
-14 -17 -10 -10 3 -26 -1 -36 -9 -16 -11 -17 -17 -6 -37 6 -13 17 -26 23 -30
19 -13 -8 -43 -43 -46 -17 -2 -31 -9 -31 -16 0 -18 37 -49 48 -42 16 9 44 -5
38 -20 -3 -7 2 -18 10 -24 11 -10 14 -9 14 9 0 11 5 21 11 21 7 0 9 -10 7 -25
-3 -14 1 -30 8 -36 14 -12 18 -1 15 41 0 11 1 11 5 2 5 -10 9 -10 20 -1 11 9
17 9 28 0 11 -10 17 -8 25 6 10 17 10 16 11 -4 0 -28 18 -33 58 -17 18 7 30 9
27 5 -2 -5 2 -12 11 -15 12 -5 15 -2 10 11 -4 9 -1 20 6 25 21 13 48 9 48 -7
0 -8 6 -15 14 -15 20 0 25 -31 10 -50 -14 -17 -8 -63 7 -54 5 3 9 18 9 34 0
26 14 39 45 45 6 1 25 8 42 16 25 10 31 18 27 31 -3 10 -1 18 5 18 6 0 11 5
11 11 0 21 85 89 120 96 40 7 72 39 67 69 -4 26 37 49 53 29 9 -11 15 -10 31
6 10 10 19 25 19 32 1 19 26 47 42 47 8 0 23 9 34 21 17 19 19 19 31 3 20 -28
15 -37 -16 -31 -25 5 -31 2 -41 -23 -13 -31 -7 -50 16 -50 9 0 14 11 14 30 0
17 5 30 10 30 6 0 10 -6 10 -13 0 -19 37 -39 46 -25 4 7 0 16 -8 22 -14 8 -12
14 14 38 17 15 32 28 33 28 2 0 5 -12 7 -27 4 -32 17 -38 43 -19 17 13 18 18
8 35 -11 18 -10 22 8 31 21 12 30 8 69 -29 13 -13 15 -12 18 2 2 10 13 17 27
17 18 0 28 -9 38 -32 33 -76 62 -187 64 -248 1 -36 5 -89 8 -119 10 -75 -23
-339 -45 -366 -5 -6 -11 -32 -14 -57 -7 -53 -24 -98 -39 -98 -5 0 -6 -12 -3
-26 5 -18 2 -32 -10 -45 -19 -21 -13 -35 10 -26 8 3 20 25 26 49 6 24 35 122
65 218 30 96 80 274 110 395 56 219 56 221 57 375 1 176 -5 207 -67 366 -49
124 -60 204 -28 204 40 0 230 -256 262 -353 33 -101 107 -206 158 -225 16 -5
80 -30 143 -55 63 -24 138 -53 165 -63 28 -10 70 -30 95 -44 55 -32 223 -110
237 -110 5 0 59 -24 119 -54 60 -29 138 -66 174 -81 119 -49 224 -96 345 -155
383 -186 395 -191 500 -210 64 -11 124 -29 163 -49 34 -17 66 -31 72 -31 7 0
10 492 10 1541 0 1024 -3 1538 -10 1534 -5 -3 -10 -14 -10 -24 0 -21 -28 -48
-50 -48 -8 -1 -23 -4 -32 -8 -13 -5 -18 -2 -18 10 0 9 9 19 20 22 13 3 20 14
20 29 0 15 6 24 15 24 24 0 17 14 -15 32 -37 21 -37 26 -4 61 31 33 47 31 54
-8 3 -16 11 -30 18 -33 9 -3 12 66 12 321 0 276 -2 326 -15 337 -19 16 -19 67
0 78 13 7 15 42 13 249 l-3 241 -45 -30 c-31 -22 -55 -31 -77 -29 -26 1 -33
-2 -34 -16 0 -11 -3 -13 -6 -5 -8 19 -23 14 -23 -8 0 -11 -4 -20 -10 -20 -5 0
-10 17 -10 37 0 26 8 45 26 64 22 23 24 30 13 46 -14 23 -5 74 13 70 6 -1 15
17 19 41 5 23 11 47 14 52 10 15 35 12 35 -5 0 -10 10 -15 29 -15 62 0 61 -4
61 189 0 126 -4 181 -12 189 -10 10 -10 17 0 32 6 11 12 49 12 85 0 58 -2 65
-20 65 -11 0 -20 3 -21 8 -8 64 -5 82 18 97 23 15 23 17 23 199 l0 184 -42 7
c-50 8 -118 49 -118 70 0 8 -4 15 -10 15 -14 0 -12 28 3 33 6 2 9 8 5 12 -12
13 -38 -3 -48 -30 -5 -14 -16 -25 -25 -25 -18 0 -20 -26 -3 -36 6 -4 16 0 23
9 16 23 25 21 25 -3 0 -11 4 -20 10 -20 5 0 22 -14 37 -30 22 -26 27 -39 27
-90 0 -48 -5 -64 -22 -80 -11 -11 -22 -16 -24 -11 -2 5 -21 17 -42 27 -43 21
-69 53 -49 61 8 3 6 14 -7 39 -14 25 -18 46 -14 76 6 51 -6 98 -29 112 -26 16
-45 -7 -23 -29 16 -17 22 -71 8 -91 -13 -20 -53 -24 -60 -6 -12 32 -30 44 -51
33 -16 -9 -21 -5 -35 32 -17 45 -46 70 -71 61 -8 -3 -15 -9 -15 -13 0 -3 -22
-6 -50 -5 -65 1 -66 -19 -2 -32 45 -9 47 -11 44 -39 -2 -16 -8 -40 -14 -53 -9
-18 -9 -28 0 -43 14 -22 10 -23 -72 -20 -27 1 -54 -3 -60 -7 -6 -5 -19 -12
-30 -16 -13 -4 -17 -2 -13 8 8 19 -18 40 -42 33 -14 -3 -18 -1 -14 9 4 10 0
12 -11 8 -9 -3 -16 -1 -16 5 0 23 -42 69 -59 64 -9 -2 -48 3 -85 11 -37 9 -71
16 -77 16 -14 0 -11 -28 4 -33 6 -2 9 -7 6 -11 -4 -4 -23 2 -42 13 -25 14 -37
16 -40 8 -2 -7 -10 7 -17 31 -8 24 -23 48 -34 54 -11 6 -29 19 -39 29 -11 10
-24 16 -29 13 -16 -10 -7 62 12 94 25 40 25 42 0 42 -21 0 -44 -34 -37 -54 7
-19 -9 -40 -23 -31 -9 6 -9 10 1 17 10 7 8 8 -6 3 -11 -4 -30 -10 -42 -12 -17
-4 -23 -13 -23 -30 0 -20 4 -24 19 -20 15 4 20 -2 25 -28 5 -26 2 -39 -16 -58
-13 -14 -28 -31 -35 -39 -6 -7 -23 -24 -37 -37 -27 -24 -26 -41 3 -41 9 0 22
-5 29 -12 9 -9 15 -8 26 8 14 19 15 18 44 -9 26 -25 32 -27 51 -15 11 7 21 18
21 25 0 14 39 38 47 29 4 -3 12 -1 19 4 19 16 64 -28 69 -68 7 -59 -5 -102
-31 -108 -20 -5 -23 -11 -18 -33 4 -14 11 -31 16 -37 5 -8 1 -24 -11 -45 -24
-43 -22 -100 5 -113 11 -5 28 -20 38 -34 25 -33 13 -53 -47 -72 -34 -11 -47
-20 -47 -34 0 -11 -3 -16 -7 -13 -3 4 -12 2 -19 -4 -21 -17 14 -78 46 -80 l25
-1 -25 -7 c-30 -8 -41 -57 -16 -67 12 -5 15 -16 10 -48 -3 -22 -10 -51 -16
-63 -8 -16 -7 -30 2 -52 10 -25 15 -29 30 -21 15 8 20 6 26 -13 5 -12 6 -26 4
-32 -2 -5 -4 -25 -4 -44 -1 -37 -23 -58 -50 -48 -15 6 -14 9 4 27 11 11 20 24
20 28 0 17 -13 22 -27 11 -10 -9 -13 -8 -13 2 0 11 -2 11 -10 -1 -8 -13 -11
-12 -24 5 -14 19 -15 19 -33 2 -22 -19 -43 -23 -43 -7 0 6 -13 24 -29 41 -31
32 -31 44 0 90 13 18 16 36 12 68 -5 36 -2 46 22 71 l28 29 -19 27 c-10 15
-23 33 -29 40 -7 10 -4 18 10 28 11 9 18 16 15 16 -3 1 -35 2 -72 3 -50 2 -68
-1 -68 -10 0 -7 -7 -13 -15 -13 -16 0 -23 21 -29 85 -2 22 -11 58 -20 80 -28
73 -16 101 49 122 26 9 45 37 20 31 -5 -2 -13 15 -17 37 -5 31 -2 46 12 66 16
22 17 33 9 63 -6 21 -16 39 -24 42 -7 3 -15 18 -18 33 -7 33 -49 48 -69 24
-15 -19 1 -47 31 -51 22 -4 27 -27 11 -52 -7 -11 -12 -12 -18 -3 -4 6 -27 13
-52 16 -40 3 -45 7 -48 31 -3 21 2 29 17 33 20 5 20 6 -4 25 -22 17 -26 18
-54 4 -29 -15 -30 -15 -50 12 -10 15 -31 34 -45 42 -26 13 -35 43 -16 55 18
11 11 21 -25 34 -22 8 -40 9 -52 3 -27 -14 -120 -25 -135 -16 -7 5 -17 9 -23
9 -5 0 -10 5 -10 12 0 19 -14 27 -20 11 -10 -26 -94 26 -111 68 -8 19 -19 34
-25 34 -6 0 -4 7 5 15 8 8 22 15 30 15 23 0 49 68 38 99 -5 14 -7 43 -4 63 5
42 -16 60 -43 38 -8 -7 -15 -9 -15 -4 0 5 -8 -1 -18 -14 l-18 -23 -68 45 c-37
26 -71 46 -76 46 -11 0 -44 72 -42 94 2 34 52 95 80 98 19 2 27 9 28 23 0 11
4 41 8 67 5 30 4 60 -4 84 -10 29 -10 45 1 78 7 22 17 46 21 53 7 8 3 10 -13
6 -14 -4 -25 0 -31 11 -11 20 -28 21 -28 1 0 -8 5 -15 10 -15 21 0 9 -29 -23
-53 -29 -22 -35 -23 -51 -11 -11 7 -23 11 -27 8 -10 -6 -69 59 -86 95 -7 14
-17 33 -22 41 -5 8 -14 27 -21 41 -7 15 -30 40 -51 55 -37 28 -48 58 -21 60 6
1 15 3 20 4 11 4 25 8 40 9 6 0 12 8 12 16 0 7 7 18 17 23 14 8 13 11 -8 23
-13 7 -27 12 -32 11 -4 -1 -12 9 -17 23 -12 32 -37 32 -51 1 -6 -13 -22 -30
-35 -37 -13 -7 -24 -19 -24 -26 0 -27 -38 6 -69 61 -34 58 -42 64 -113 75 -32
5 -49 4 -51 -3 -2 -6 -17 3 -33 21 -23 25 -42 34 -89 42 -33 6 -79 9 -102 7
-45 -3 -55 8 -26 30 24 17 15 23 -38 28 -26 3 -43 9 -41 16 1 6 -4 18 -13 26
-8 9 -15 11 -15 5 0 -14 -98 -32 -167 -32 -32 1 -104 -2 -161 -5 -96 -5 -105
-4 -145 18 -37 22 -51 24 -117 20 -53 -3 -83 -10 -103 -24 -15 -11 -55 -26
-88 -32 -52 -11 -59 -11 -59 3 0 9 -9 22 -20 29 -17 10 -20 10 -20 -3 0 -8 5
-15 11 -15 5 0 7 -5 3 -11 -5 -8 -10 -6 -16 5 -6 11 -16 15 -29 11 -23 -8 -27
22 -5 31 22 8 4 47 -25 55 -37 11 -69 10 -69 -1z m1090 -140 c0 -5 -4 -10 -10
-10 -5 0 -10 5 -10 10 0 6 5 10 10 10 6 0 10 -4 10 -10z m-1920 -180 c0 -5 7
-7 15 -4 8 4 15 1 15 -5 0 -6 7 -11 15 -11 20 0 19 -4 -11 -50 -26 -39 -28
-40 -50 -25 -26 17 -64 20 -64 5 0 -5 -4 -10 -10 -10 -14 0 -12 54 2 68 7 7
22 12 34 12 12 0 24 7 28 15 6 17 26 21 26 5z m970 -780 c11 -7 7 -10 -17 -10
-18 0 -33 5 -33 10 0 13 30 13 50 0z m-1480 -35 c0 -29 26 -35 33 -7 3 9 5 2
6 -15 0 -18 -3 -33 -8 -33 -5 0 -11 -8 -13 -18 -3 -10 -14 -18 -25 -19 -17 -1
-22 6 -26 39 -5 38 8 78 25 78 5 0 8 -11 8 -25z m2740 -174 c5 -11 10 -24 10
-30 0 -17 -27 -13 -34 5 -16 41 4 62 24 25z m60 -16 c7 -9 10 -18 7 -22 -8 -7
-37 15 -37 28 0 14 16 11 30 -6z m-10 -40 c0 -8 -4 -15 -10 -15 -5 0 -10 7
-10 15 0 8 5 15 10 15 6 0 10 -7 10 -15z m-2278 -236 c-2 -36 -37 -107 -48
-96 -7 7 18 57 28 57 4 0 8 21 8 47 0 25 3 43 7 40 3 -4 6 -25 5 -48z m3299
-45 c32 22 39 20 39 -8 0 -14 5 -28 10 -31 18 -11 10 -33 -15 -39 -14 -4 -25
-13 -25 -21 0 -7 -4 -16 -10 -20 -10 -6 -105 38 -114 54 -4 5 3 26 15 45 21
36 21 36 49 20 26 -16 29 -16 51 0z m-3921 -84 c0 -5 -2 -10 -4 -10 -3 0 -8 5
-11 10 -3 6 -1 10 4 10 6 0 11 -4 11 -10z m3720 -51 c0 -5 5 -7 10 -4 6 3 10
-1 10 -9 0 -9 8 -16 18 -16 9 0 32 -9 50 -20 27 -17 32 -26 32 -57 1 -34 2
-36 14 -20 21 28 27 20 24 -30 -3 -44 -6 -50 -38 -65 -47 -23 -74 -15 -77 23
-1 16 -14 45 -29 65 -30 38 -48 144 -25 144 6 0 11 -5 11 -11z m510 -79 c-8
-5 -16 -8 -17 -6 -2 2 -1 11 3 20 5 13 10 14 18 6 8 -8 7 -13 -4 -20z m-42 8
c-3 -7 -13 -15 -24 -17 -16 -3 -17 -1 -5 13 16 19 34 21 29 4z m707 -18 c3 -5
-6 -17 -20 -26 -24 -15 -28 -16 -42 -2 -8 9 -12 21 -9 27 9 14 63 15 71 1z
m563 -14 c3 -13 -1 -17 -14 -14 -11 2 -20 11 -22 22 -3 13 1 17 14 14 11 -2
20 -11 22 -22z m182 -7 c0 -5 -4 -9 -10 -9 -5 0 -10 7 -10 16 0 8 5 12 10 9 6
-3 10 -10 10 -16z m-223 -13 c4 -3 6 -19 6 -36 0 -20 6 -32 19 -36 10 -3 18
-9 18 -13 0 -4 18 -13 40 -20 46 -14 65 -39 75 -98 l6 -41 -51 -11 c-28 -6
-57 -11 -65 -11 -22 0 -78 91 -77 125 0 16 -5 37 -13 45 -25 29 -55 91 -49
102 7 10 80 5 91 -6z m221 -41 c15 -4 24 -2 28 9 10 25 26 18 22 -9 -2 -14 -6
-24 -9 -23 -12 6 -40 -25 -35 -38 7 -18 -11 -27 -40 -20 -20 5 -23 11 -18 30
3 13 1 41 -5 61 l-10 38 22 -21 c12 -11 32 -23 45 -27z m-1378 1 c0 -3 -4 -8
-10 -11 -5 -3 -10 -1 -10 4 0 6 5 11 10 11 6 0 10 -2 10 -4z m817 -63 c-11
-10 -26 8 -20 23 5 15 7 14 15 -1 6 -9 7 -19 5 -22z m131 -65 c2 -20 9 -28 22
-28 11 0 24 -9 30 -19 13 -25 13 -41 0 -41 -5 0 -26 -11 -46 -25 -28 -19 -40
-22 -50 -14 -16 13 -19 59 -4 59 20 0 10 49 -12 61 -21 11 -21 12 -2 26 29 21
58 13 62 -19z m-1164 -34 c36 -36 47 -79 26 -100 -7 -7 5 -18 37 -35 l48 -24
2 -58 c1 -52 -1 -59 -22 -67 -37 -14 -36 -25 5 -65 22 -22 40 -45 40 -53 0
-20 -39 -72 -54 -72 -22 0 -37 22 -24 37 15 18 1 30 -20 17 -14 -10 -19 -4
-30 39 -11 45 -11 52 3 60 15 8 15 10 0 25 -9 10 -25 32 -36 50 -22 37 -62 44
-81 12 -10 -16 -20 -18 -58 -14 -35 4 -41 3 -27 -6 9 -6 17 -19 17 -29 0 -10
7 -24 15 -31 18 -15 19 -52 3 -83 -17 -30 -29 -37 -53 -34 -31 3 -45 22 -45
59 0 19 -4 38 -9 44 -6 5 -4 28 4 59 8 28 14 41 14 30 1 -16 3 -17 10 -5 6 8
7 19 4 25 -4 5 -2 7 2 2 10 -9 45 21 45 40 0 7 -15 22 -32 33 -18 11 -26 20
-18 20 11 0 12 2 3 8 -13 8 -13 72 0 72 4 0 7 -4 7 -10 0 -14 40 -12 70 3 14
7 25 19 25 27 0 9 12 16 29 18 18 2 30 11 33 23 8 28 27 23 67 -17z m-284 -73
c0 -6 -4 -13 -10 -16 -5 -3 -10 1 -10 9 0 9 5 16 10 16 6 0 10 -4 10 -9z
m1517 -78 c-16 -16 -27 -21 -31 -14 -4 6 -2 11 3 11 6 0 11 5 11 12 0 6 8 20
18 31 16 18 17 18 20 2 2 -10 -7 -29 -21 -42z m366 33 c9 -7 17 -23 17 -34 0
-11 5 -24 10 -27 15 -9 12 -22 -7 -29 -9 -4 -31 4 -53 18 -35 23 -38 23 -54 8
-9 -9 -16 -12 -17 -7 0 6 -2 18 -4 29 -3 14 1 17 21 13 18 -3 24 0 24 13 0 32
31 40 63 16z m-5713 -45 c0 -6 -4 -13 -10 -16 -5 -3 -10 1 -10 9 0 9 5 16 10
16 6 0 10 -4 10 -9z m-24 -61 c4 -16 10 -27 15 -24 5 3 9 -7 10 -23 1 -28 1
-27 14 7 l13 35 1 -52 c1 -28 -3 -54 -8 -57 -5 -3 -23 -3 -40 0 -24 5 -29 10
-21 19 18 22 15 86 -4 97 -9 5 -14 13 -11 19 12 18 26 9 31 -21z m28 15 c3 -8
1 -15 -4 -15 -6 0 -10 7 -10 15 0 8 2 15 4 15 2 0 6 -7 10 -15z m5637 -82 c19
-6 39 -44 39 -77 0 -13 -19 -44 -44 -72 -38 -42 -46 -46 -60 -35 -13 11 -21
11 -48 0 -38 -16 -56 -14 -80 8 -26 23 -22 45 12 68 16 11 34 32 39 47 6 15
24 33 45 43 20 10 39 22 42 27 3 5 13 6 23 3 9 -4 23 -9 32 -12z m-2526 -105
c22 -6 43 -11 47 -10 9 2 27 -29 25 -43 -1 -5 6 -11 15 -13 12 -2 15 2 11 17
-4 17 -1 21 20 21 30 0 44 -15 22 -24 -26 -10 -16 -25 20 -32 19 -3 34 -9 33
-13 -3 -24 4 -33 22 -28 11 3 23 1 26 -4 3 -5 -2 -9 -12 -9 -9 0 -40 -14 -68
-31 l-51 -32 -50 18 c-27 9 -57 23 -65 29 -24 20 -245 51 -380 53 -69 1 -131
3 -137 3 -7 0 -13 4 -13 9 0 13 52 45 72 44 9 -1 22 5 29 13 6 8 28 14 48 15
20 0 56 8 80 17 51 20 237 19 306 0z m1895 -50 c0 -5 -11 -8 -25 -8 -14 0 -25
4 -25 9 0 5 11 8 25 7 14 0 25 -4 25 -8z m145 -9 c4 -6 29 -9 56 -8 50 3 77
-11 83 -42 2 -8 6 -26 10 -41 11 -37 0 -51 -27 -35 -12 6 -25 17 -29 22 -11
14 -29 -16 -22 -36 5 -18 -18 -32 -40 -23 -24 9 -30 -29 -7 -45 26 -17 26 -27
1 -41 -21 -11 -26 -8 -68 31 -9 9 -27 22 -39 28 -24 12 -31 45 -12 57 7 4 9
21 6 43 -7 46 2 68 33 86 31 17 47 18 55 4z m-1095 -54 c16 0 29 -9 40 -28 14
-26 14 -29 -3 -38 -11 -7 -16 -17 -12 -29 5 -15 0 -19 -21 -22 -36 -4 -54 -47
-23 -55 18 -5 20 -12 17 -46 -3 -30 1 -46 14 -59 10 -10 18 -25 18 -33 0 -16
-12 -20 -23 -8 -10 10 -67 14 -67 5 0 -4 5 -13 12 -20 19 -19 -1 -28 -29 -12
-36 21 -39 38 -9 51 34 16 40 38 16 64 -21 22 -27 60 -10 70 5 3 7 25 3 51 -5
37 -2 49 16 68 14 15 19 29 15 41 -6 14 -4 16 7 9 8 -5 25 -9 39 -9z m-1115
-44 c69 -25 125 -60 125 -80 0 -9 -6 -11 -17 -6 -31 13 -81 16 -88 5 -3 -5
-11 -10 -16 -10 -6 0 -7 5 -4 10 3 6 2 10 -4 10 -5 0 -13 -5 -16 -10 -10 -17
-25 -1 -26 28 -1 25 -2 23 -15 -17 -3 -11 -7 -11 -19 -1 -9 7 -15 8 -15 2 0
-12 -42 -3 -52 12 -6 8 -11 7 -17 -3 -5 -8 -22 -15 -38 -17 -15 -1 -50 -6 -77
-10 -35 -5 -50 -3 -56 6 -13 21 -73 -1 -87 -32 -7 -14 -25 -34 -40 -43 -16
-10 -43 -34 -62 -53 -32 -32 -33 -36 -17 -48 11 -8 33 -11 59 -7 23 3 48 6 55
6 6 0 12 4 12 8 0 8 77 12 265 13 92 1 101 -1 109 -19 7 -17 17 -21 58 -19 46
1 109 -13 124 -29 4 -4 15 -7 25 -7 15 0 39 -27 39 -44 0 -2 -25 -16 -55 -31
-50 -23 -67 -26 -163 -25 -59 0 -136 5 -172 11 -36 6 -80 12 -99 13 -24 1 -36
7 -42 21 -7 17 -8 18 -8 2 -1 -16 -3 -16 -26 -1 -14 9 -31 14 -39 11 -8 -3
-17 -1 -19 6 -3 9 -8 8 -21 -2 -13 -11 -20 -11 -28 -3 -7 7 -22 12 -35 12 -13
0 -46 12 -74 26 -45 24 -50 30 -47 57 2 24 9 33 27 37 17 4 27 15 33 37 9 34
51 68 71 57 7 -4 9 -4 5 1 -5 5 9 20 30 34 20 14 46 34 57 44 22 21 93 56 140
68 51 14 195 2 260 -20z m415 -46 c0 -21 -5 -25 -29 -25 -16 0 -35 7 -42 17
-13 15 -11 16 14 11 21 -4 27 -2 23 8 -3 9 2 14 14 14 15 0 20 -7 20 -25z
m1516 8 c8 -12 9 -22 3 -30 -7 -7 -6 -13 1 -18 19 -12 10 -35 -14 -35 -23 0
-24 3 -23 50 2 52 11 62 33 33z m-666 -46 c0 -10 -5 -17 -12 -15 -19 7 -32 34
-24 53 6 17 7 17 21 -1 8 -10 15 -27 15 -37z m114 30 c13 -21 -8 -40 -36 -31
-12 4 -21 -3 -30 -20 -6 -14 -15 -26 -20 -26 -12 0 -7 72 5 88 14 18 68 11 81
-11z m224 -49 c20 -20 14 -55 -10 -62 -13 -3 -26 -6 -29 -6 -4 0 -5 67 0 78 3
7 29 0 39 -10z m857 -10 c18 -8 31 -8 49 0 33 15 97 -3 103 -29 3 -10 9 -16
14 -13 9 5 14 -32 10 -76 -3 -34 -8 -36 -30 -16 -15 13 -28 16 -51 11 -26 -6
-35 -3 -46 14 -9 12 -24 21 -34 21 -12 0 -20 8 -22 23 -2 12 -9 21 -15 20 -6
-1 -17 4 -23 12 -10 12 -10 18 0 30 15 18 13 18 45 3z m245 8 c0 -2 -7 -7 -16
-10 -8 -3 -12 -2 -9 4 6 10 25 14 25 6z m-2223 -34 c41 -52 41 -97 -1 -108
-31 -7 -23 -34 9 -34 29 0 46 -20 38 -48 -7 -29 -57 -30 -124 -1 -56 24 -55
39 2 39 44 0 52 16 14 30 -14 5 -28 18 -31 27 -3 10 -10 26 -15 36 -6 11 -6
17 1 17 5 0 10 11 10 25 0 45 66 56 97 17z m703 17 c0 -6 -6 -17 -14 -24 -12
-12 -16 -12 -26 0 -6 8 -9 19 -5 25 8 13 45 13 45 -1z m-1405 -28 c3 -5 1 -12
-5 -16 -5 -3 -10 1 -10 9 0 18 6 21 15 7z m-85 -36 c0 -26 -22 -33 -50 -15
-16 10 -15 12 15 28 30 17 35 15 35 -13z m2328 -34 c2 -13 12 -26 23 -28 10
-3 19 -12 19 -19 0 -19 19 -18 41 2 10 9 40 18 66 21 44 4 47 3 29 -11 -10 -8
-23 -17 -28 -18 -4 -2 1 -21 12 -43 11 -21 20 -45 20 -51 0 -14 -22 -24 -52
-24 -13 0 -18 -5 -15 -14 3 -7 1 -32 -5 -55 l-11 -42 -56 3 -56 3 2 53 c2 36
-1 52 -10 52 -7 0 -18 15 -25 33 -16 44 -15 57 3 57 12 0 14 7 9 28 -4 15 -11
29 -16 30 -4 2 -8 15 -8 28 0 22 4 25 28 22 20 -2 28 -9 30 -27z m-2443 0 c3
-5 1 -12 -5 -16 -5 -3 -10 1 -10 9 0 18 6 21 15 7z m2279 -118 c-7 -15 -8 -14
-12 10 -2 15 -8 27 -13 27 -5 0 -9 6 -9 12 0 7 10 3 21 -9 16 -15 19 -27 13
-40z m-834 11 c0 -21 3 -23 19 -14 11 5 42 10 70 10 31 0 51 4 51 11 0 10 11
10 98 -3 7 -1 15 -13 18 -27 16 -79 28 -107 66 -141 36 -34 39 -41 35 -81 -3
-35 -8 -45 -25 -47 -11 -2 -31 2 -44 9 -13 7 -35 14 -49 16 -49 5 -69 19 -92
62 -19 35 -33 47 -73 62 -34 13 -62 17 -90 13 -54 -8 -69 10 -60 73 5 35 13
53 34 69 31 26 42 23 42 -12z m1207 14 c-3 -8 -6 -5 -6 6 -1 11 2 17 5 13 3
-3 4 -12 1 -19z m-599 -10 c7 -7 12 -21 12 -33 0 -12 5 -26 12 -33 9 -9 7 -12
-11 -12 -12 0 -20 4 -17 8 8 13 -23 52 -40 52 -15 0 -19 12 -7 23 10 11 38 8
51 -5z m160 -31 c2 -15 10 -27 18 -27 8 0 14 -9 14 -20 0 -17 -7 -20 -40 -20
-46 0 -48 -5 -18 -37 15 -16 33 -23 60 -23 21 0 38 -4 38 -10 0 -5 9 -10 20
-10 13 0 25 -12 35 -37 9 -21 27 -49 40 -63 23 -24 31 -70 12 -70 -5 0 -7 -9
-4 -20 9 -36 -27 -45 -78 -20 -25 12 -49 19 -55 15 -5 -3 -10 1 -10 9 0 9 -7
16 -15 16 -8 0 -22 11 -30 24 -9 14 -24 24 -34 23 -37 -2 -76 25 -98 69 -21
41 -21 48 -9 72 18 35 45 58 78 66 21 5 25 10 21 27 -4 14 0 25 11 31 9 5 16
16 16 24 0 26 25 9 28 -19z m652 -31 c-15 -15 -12 -49 5 -72 28 -37 18 -66
-36 -109 -42 -33 -59 -40 -98 -41 l-46 -1 0 61 c2 84 37 146 85 146 28 1 63
23 53 34 -4 4 -1 11 7 16 19 12 46 -18 30 -34z m-2849 -6 c5 0 9 -4 9 -10 0
-14 -13 -12 -36 6 -17 14 -17 15 -1 10 10 -3 23 -6 28 -6z m-211 -21 c0 -6 -4
-7 -10 -4 -5 3 -10 11 -10 16 0 6 5 7 10 4 6 -3 10 -11 10 -16z m3401 -66 c1
-5 3 -36 4 -70 2 -54 -1 -65 -21 -84 -13 -12 -24 -28 -24 -36 0 -7 -10 -13
-22 -13 -20 0 -20 1 -4 19 14 15 14 20 3 29 -8 7 -16 9 -19 7 -3 -3 -8 11 -11
32 -5 30 -2 43 20 72 15 20 32 39 37 43 14 10 36 10 37 1z m-1720 -53 c18 -10
18 -12 -10 -38 -44 -40 -59 -52 -67 -52 -4 0 -12 -6 -18 -14 -6 -8 -20 -17
-32 -20 -17 -5 -20 -1 -21 29 -2 67 89 126 148 95z m567 -147 c8 -48 7 -52
-17 -72 -43 -35 -54 -41 -88 -41 -28 0 -33 4 -32 23 0 12 -3 41 -7 65 -4 29
-3 42 5 42 6 0 11 8 11 18 0 26 20 42 52 42 15 0 28 5 28 11 0 30 39 -43 48
-88z m-2372 58 c-1 -24 -4 -27 -18 -20 -27 15 -22 49 7 49 7 0 12 -13 11 -29z
m74 -21 c0 -5 -2 -10 -4 -10 -3 0 -8 5 -11 10 -3 6 -1 10 4 10 6 0 11 -4 11
-10z m2680 -19 c0 -11 -4 -23 -10 -26 -6 -4 -10 5 -10 19 0 14 5 26 10 26 6 0
10 -9 10 -19z m680 -64 c0 -11 23 -24 72 -41 31 -10 16 -50 -21 -57 -17 -4
-41 -15 -52 -24 -15 -15 -24 -16 -42 -8 -12 6 -40 15 -62 19 -33 7 -40 13 -41
33 -2 45 66 96 78 59 3 -8 9 -4 17 10 12 23 51 31 51 9z m-1648 -59 c37 -65
91 -65 102 0 6 38 8 40 33 33 35 -9 50 -52 34 -96 -14 -39 -14 -58 -1 -50 6 3
10 16 10 28 0 16 3 18 9 8 5 -8 11 -9 15 -3 19 30 120 -50 114 -91 -3 -20 -8
-24 -68 -49 -39 -17 -80 -8 -80 17 0 8 -4 15 -10 15 -5 0 -10 -13 -10 -28 0
-42 -27 -126 -50 -155 -11 -14 -23 -40 -27 -59 -10 -55 -43 -115 -84 -157 -70
-70 -44 -96 36 -36 49 38 65 38 65 0 0 -38 -11 -55 -34 -55 -29 0 -76 -53 -76
-85 0 -41 -26 -91 -59 -116 -16 -12 -28 -26 -25 -31 3 -5 -5 -6 -18 -3 -12 3
-40 7 -61 9 -62 7 -111 52 -110 100 1 48 22 106 36 103 8 -1 13 16 15 46 3 43
7 51 38 69 36 21 54 45 54 72 0 20 -36 21 -74 1 l-29 -15 7 47 c3 27 10 73 15
103 5 30 10 89 10 130 1 41 4 85 7 98 6 22 8 21 24 -15 10 -21 29 -48 43 -61
l25 -23 11 63 11 63 -35 30 c-19 17 -35 34 -35 39 0 10 83 91 108 105 21 12
35 1 64 -51z m238 11 c0 -5 -9 -9 -20 -9 -19 0 -26 11 -14 23 8 8 34 -3 34
-14z m417 -115 c-3 -3 -12 -4 -19 -1 -8 3 -5 6 6 6 11 1 17 -2 13 -5z m759
-74 c22 0 35 -42 18 -61 -18 -20 -18 -35 1 -43 9 -3 15 -18 14 -38 0 -18 2
-44 6 -58 13 -50 -63 -93 -95 -55 -11 13 -9 21 9 46 l22 29 -26 34 c-27 36
-32 65 -12 85 10 10 7 17 -14 34 -14 12 -34 27 -45 33 -17 10 -16 13 15 43
l33 32 30 -40 c16 -23 36 -41 44 -41z m-806 39 c0 -7 7 -17 17 -24 24 -18 10
-44 -21 -38 -33 7 -40 17 -32 49 6 24 36 35 36 13z m647 -11 c-3 -8 -6 -5 -6
6 -1 11 2 17 5 13 3 -3 4 -12 1 -19z m-235 -52 c17 -25 -1 -45 -43 -52 -32 -5
-35 -4 -34 18 0 50 52 73 77 34z m176 -71 c9 -19 8 -26 -2 -32 -8 -4 -18 -24
-23 -43 -6 -24 -16 -35 -29 -36 -10 -1 -24 -2 -30 -3 -6 -1 -11 -17 -10 -38 1
-37 0 -38 -39 -43 -22 -3 -48 -4 -58 -1 -28 6 -36 40 -18 73 13 22 14 31 4 47
-10 15 -9 22 5 34 20 17 62 29 62 17 0 -8 56 -40 69 -40 10 0 41 57 35 63 -7
7 4 27 15 27 4 0 13 -11 19 -25z m432 -35 c0 -5 -7 -10 -15 -10 -8 0 -15 5
-15 10 0 6 7 10 15 10 8 0 15 -4 15 -10z m-424 -45 c-7 -18 -26 -20 -26 -2 0
18 24 41 28 27 2 -6 1 -17 -2 -25z m-324 -99 c-2 -25 3 -44 14 -57 12 -13 14
-22 6 -31 -6 -7 -12 -26 -14 -43 -2 -25 -7 -30 -28 -27 -43 4 -61 37 -56 103
6 76 20 101 54 97 25 -3 27 -6 24 -42z m585 2 c-3 -8 -6 -5 -6 6 -1 11 2 17 5
13 3 -3 4 -12 1 -19z m-109 -79 c-4 -25 -1 -30 21 -35 54 -12 59 -16 75 -48
20 -42 20 -46 -2 -71 -38 -44 -49 -48 -82 -29 -16 10 -30 25 -30 33 0 23 -41
61 -65 61 -29 0 -55 30 -58 66 -3 36 33 57 86 48 25 -4 37 -2 37 6 0 6 5 8 11
4 6 -3 9 -19 7 -35z m-1040 -5 c12 -8 20 -20 16 -25 -3 -5 0 -17 7 -25 8 -10
9 -18 2 -25 -11 -11 -43 -2 -43 12 0 5 -9 9 -20 9 -11 0 -20 -7 -20 -15 0 -8
-9 -15 -20 -15 -11 0 -20 6 -20 14 0 7 9 16 20 19 13 3 20 14 20 29 0 41 20
49 58 22z m890 -69 c-4 -29 -42 -27 -46 3 -2 13 2 30 9 38 12 14 14 14 26 -3
8 -10 12 -27 11 -38z m-102 -49 c17 -18 18 -36 2 -36 -21 1 -51 28 -43 39 9
15 24 14 41 -3z m-276 -46 c0 -5 -4 -10 -10 -10 -5 0 -10 5 -10 10 0 6 5 10
10 10 6 0 10 -4 10 -10z m537 -157 c-6 -53 -24 -78 -43 -62 -8 6 -14 18 -14
25 0 9 -11 14 -30 14 -32 0 -50 22 -50 64 0 23 4 25 53 28 71 4 91 -12 84 -69z
m213 47 c0 -5 -4 -10 -10 -10 -5 0 -10 5 -10 10 0 6 5 10 10 10 6 0 10 -4 10
-10z m-910 -61 c0 -10 -7 -19 -15 -19 -15 0 -21 31 -9 43 11 10 24 -3 24 -24z
m0 -39 c0 -5 -4 -10 -9 -10 -6 0 -13 5 -16 10 -3 6 1 10 9 10 9 0 16 -4 16
-10z m-919 -31 c24 -9 25 -14 25 -74 0 -71 -6 -78 -57 -68 -36 7 -52 38 -50
97 1 45 17 70 40 60 9 -3 28 -10 42 -15z m2031 -1 c-6 -6 -15 -8 -19 -4 -4 4
-1 11 7 16 8 5 17 7 19 4 3 -2 -1 -10 -7 -16z m-168 -399 c32 -25 32 -35 1
-82 -21 -30 -32 -37 -58 -37 -34 0 -57 15 -57 37 0 7 7 13 15 13 11 0 12 5 5
25 -8 20 -6 29 10 45 26 26 51 25 84 -1z m-4942 -441 c-9 -9 -15 -9 -24 0 -9
9 -7 12 12 12 19 0 21 -3 12 -12z m318 -324 c0 -8 -4 -12 -10 -9 -5 3 -10 10
-10 16 0 5 5 9 10 9 6 0 10 -7 10 -16z m43 -55 c7 -24 -8 -34 -25 -16 -7 8
-20 12 -30 9 -17 -4 -26 17 -13 30 12 12 64 -5 68 -23z m147 -28 c0 -17 -18
-21 -24 -6 -3 9 0 15 9 15 8 0 15 -4 15 -9z m85 -71 c-3 -5 -12 -7 -20 -3 -21
7 -19 13 6 13 11 0 18 -4 14 -10z m75 -27 c11 -17 11 -17 6 0 -6 19 2 21 24 7
18 -11 5 -27 -29 -32 -18 -2 -25 2 -27 20 -5 26 10 29 26 5z m-40 -35 c0 -13
-23 -5 -28 10 -2 7 2 10 12 6 9 -3 16 -11 16 -16z m-220 -19 c0 -6 -4 -7 -10
-4 -5 3 -10 11 -10 16 0 6 5 7 10 4 6 -3 10 -11 10 -16z m380 -79 c0 -5 -4
-10 -10 -10 -5 0 -10 5 -10 10 0 6 5 10 10 10 6 0 10 -4 10 -10z m-273 -172
c-3 -8 -6 -5 -6 6 -1 11 2 17 5 13 3 -3 4 -12 1 -19z m292 -107 c8 -14 7 -22
-4 -31 -13 -11 -15 -8 -15 19 0 36 5 39 19 12z m1 -77 c0 -8 -4 -12 -10 -9 -5
3 -10 10 -10 16 0 5 5 9 10 9 6 0 10 -7 10 -16z m224 -80 c3 -8 2 -12 -4 -9
-6 3 -10 10 -10 16 0 14 7 11 14 -7z m1348 -34 c-4 -31 -9 -34 -36 -24 -17 6
-11 33 12 51 21 17 29 9 24 -27z m-36 -67 c-3 -8 -6 -17 -6 -19 0 -12 -59 -2
-64 11 -3 9 0 15 9 15 8 0 15 -6 16 -12 0 -7 4 -3 9 9 6 15 15 21 25 17 9 -4
14 -13 11 -21z m84 -3 c0 -15 -7 -20 -29 -20 -40 0 -48 16 -14 28 40 15 43 14
43 -8z"/>
<path d="M2042 6270 c0 -14 2 -19 5 -12 2 6 2 18 0 25 -3 6 -5 1 -5 -13z"/>
<path d="M5815 5750 c3 -5 12 -7 20 -3 21 7 19 13 -6 13 -11 0 -18 -4 -14 -10z"/>
<path d="M5085 4860 c3 -5 15 -10 26 -10 11 0 17 5 14 10 -3 6 -15 10 -26 10
-11 0 -17 -4 -14 -10z"/>
<path d="M7431 4614 c0 -11 3 -14 6 -6 3 7 2 16 -1 19 -3 4 -6 -2 -5 -13z"/>
<path d="M6830 4540 c0 -5 5 -10 10 -10 6 0 10 5 10 10 0 6 -4 10 -10 10 -5 0
-10 -4 -10 -10z"/>
<path d="M2705 7451 c-3 -5 -1 -12 5 -16 5 -3 10 1 10 9 0 18 -6 21 -15 7z"/>
<path d="M4551 7434 c0 -11 3 -14 6 -6 3 7 2 16 -1 19 -3 4 -6 -2 -5 -13z"/>
<path d="M2628 7433 c7 -3 16 -2 19 1 4 3 -2 6 -13 5 -11 0 -14 -3 -6 -6z"/>
<path d="M5666 7408 c-6 -31 8 -53 26 -42 16 10 5 74 -12 74 -4 0 -10 -14 -14
-32z"/>
<path d="M4467 7411 c3 -12 11 -17 19 -14 21 8 17 33 -5 33 -14 0 -18 -5 -14
-19z"/>
<path d="M765 7403 c-19 -4 -45 -43 -45 -69 0 -7 -10 -9 -25 -6 -30 5 -34 -16
-9 -53 15 -23 15 -28 0 -66 -14 -33 -14 -44 -4 -58 7 -9 13 -18 14 -19 2 -2
21 -8 45 -13 34 -8 45 -7 60 7 11 9 19 23 19 31 0 19 50 84 60 78 5 -3 7 11 5
32 -2 24 -11 43 -26 56 -13 10 -29 33 -35 50 -11 32 -22 38 -59 30z"/>
<path d="M5901 7380 c-5 -17 -16 -37 -23 -45 -31 -35 -38 -45 -38 -60 0 -8 5
-15 11 -15 6 0 9 -9 6 -19 -3 -12 6 -31 27 -53 l31 -33 3 48 c3 51 4 52 51 36
39 -14 44 -9 32 24 -9 22 -8 25 7 20 9 -4 30 -17 45 -30 35 -28 57 -30 57 -4
0 14 -16 28 -54 46 -31 15 -58 36 -64 51 -7 13 -23 29 -37 34 -14 5 -25 14
-25 20 0 22 -19 9 -29 -20z"/>
<path d="M7003 7390 c-26 -11 -29 -23 -10 -39 10 -8 19 -6 36 10 12 11 19 24
16 30 -7 11 -13 11 -42 -1z"/>
<path d="M7520 7382 c0 -7 -5 -12 -11 -12 -13 0 -64 -53 -73 -75 -3 -8 -10
-15 -16 -15 -27 0 -4 -27 41 -49 32 -16 52 -33 55 -47 3 -13 11 -22 17 -21 18
3 20 -38 2 -53 -19 -16 -19 -39 0 -46 20 -8 19 -27 -5 -71 -10 -20 -17 -40
-14 -45 3 -4 0 -8 -5 -8 -6 0 -11 -6 -11 -14 0 -8 -6 -16 -12 -18 -7 -3 12
-16 42 -30 49 -23 56 -24 67 -10 7 9 16 12 20 8 5 -4 -5 -18 -21 -31 l-29 -23
22 -12 c12 -6 27 -9 34 -7 7 2 22 0 35 -4 22 -8 22 -7 22 72 0 55 -3 78 -11
74 -17 -11 -121 5 -116 18 2 6 15 20 29 30 33 24 78 17 78 -13 0 -11 5 -20 10
-20 6 0 10 53 10 140 0 128 -6 160 -25 130 -3 -5 -17 -10 -31 -10 -13 0 -24
-6 -24 -12 -1 -7 -10 4 -20 24 -11 20 -25 40 -30 43 -8 5 -7 11 1 22 9 10 10
16 2 21 -7 4 -13 19 -15 34 -4 28 -18 51 -18 30z"/>
<path d="M4716 7362 c-3 -5 1 -13 10 -16 24 -9 44 -7 44 5 0 6 -6 9 -14 6 -7
-3 -18 -1 -24 5 -6 6 -12 6 -16 0z"/>
<path d="M600 7345 c-7 -9 -19 -14 -27 -11 -8 3 -24 -3 -35 -14 -18 -16 -19
-20 -5 -20 8 0 19 5 23 11 3 6 19 9 35 5 32 -6 45 6 31 30 -8 14 -10 14 -22
-1z"/>
<path d="M1243 7307 c-24 -6 -43 -14 -43 -18 0 -5 -5 -9 -11 -9 -6 0 -24 -9
-40 -21 -22 -15 -28 -26 -23 -41 3 -11 0 -33 -6 -49 -10 -24 -10 -33 4 -54 10
-15 25 -29 34 -32 27 -10 42 -30 42 -52 0 -19 4 -21 40 -15 31 5 40 3 40 -8 0
-8 -11 -20 -25 -26 -30 -14 -32 -28 -6 -41 28 -15 68 8 75 43 3 16 1 46 -4 67
-8 30 -17 40 -38 45 -15 3 -33 7 -39 10 -18 5 -10 61 11 86 18 20 18 20 32 -7
8 -15 14 -32 14 -39 0 -18 53 -63 57 -48 3 6 11 12 18 12 8 0 18 7 23 15 8 15
52 23 82 14 10 -3 15 3 15 16 0 16 7 20 32 20 44 1 55 15 58 70 1 38 -1 45
-14 40 -9 -4 -50 -7 -91 -8 -69 -2 -77 0 -97 23 -19 22 -24 23 -43 12 -13 -8
-27 -9 -38 -4 -9 5 -36 4 -59 -1z"/>
<path d="M1925 7269 c-12 -19 5 -23 22 -6 16 16 16 17 1 17 -9 0 -20 -5 -23
-11z"/>
<path d="M5760 7260 c0 -5 5 -10 11 -10 5 0 7 5 4 10 -3 6 -8 10 -11 10 -2 0
-4 -4 -4 -10z"/>
<path d="M1757 7236 c-7 -19 1 -46 14 -46 5 0 9 -11 9 -25 0 -16 6 -25 15 -25
8 0 15 6 15 13 0 9 2 9 9 -1 4 -7 14 -12 22 -10 10 2 14 -8 15 -37 1 -77 14
-115 45 -130 26 -14 29 -13 43 7 9 12 16 30 16 40 0 9 5 20 10 23 16 10 11 41
-9 59 -11 10 -23 31 -26 47 -4 18 -13 29 -24 29 -9 0 -22 5 -28 11 -6 6 -30
12 -54 14 -33 2 -47 8 -55 24 -9 18 -12 19 -17 7z"/>
<path d="M7125 7221 l-60 -16 -3 -48 c-3 -41 -1 -47 17 -47 11 0 23 -5 26 -10
4 -6 11 -8 16 -4 6 3 26 3 45 0 30 -6 33 -10 28 -31 -4 -16 -2 -25 6 -25 9 0
7 -7 -4 -25 -19 -29 -21 -68 -4 -95 10 -15 9 -24 -2 -44 -11 -22 -11 -30 0
-51 7 -14 17 -25 22 -25 4 0 8 -9 8 -20 0 -11 -4 -20 -10 -20 -5 0 -10 -7 -10
-15 0 -19 20 -19 44 -2 15 11 16 18 8 34 -10 17 -8 22 8 26 15 4 20 14 20 37
0 35 -25 90 -41 90 -7 0 -8 17 -3 48 6 47 23 77 30 56 5 -12 73 -9 87 5 12 12
22 131 11 131 -5 0 -19 -7 -31 -15 -19 -13 -22 -13 -27 0 -3 8 -17 15 -30 15
-17 0 -34 12 -52 35 -14 19 -29 35 -33 34 -3 -1 -33 -8 -66 -18z m95 -73 c-1
-25 -26 -47 -47 -42 -36 10 -17 54 23 54 13 0 24 -6 24 -12z"/>
<path d="M6810 7200 c-8 -5 -12 -11 -10 -14 3 -2 14 2 24 10 22 15 10 19 -14
4z"/>
<path d="M2242 7170 c-28 -26 -30 -33 -20 -50 7 -11 14 -16 16 -10 2 5 17 10
33 10 33 0 34 5 16 49 l-13 32 -32 -31z"/>
<path d="M5418 7128 c-13 -13 -39 -34 -58 -47 l-35 -23 -45 25 c-46 26 -47 26
-63 7 -9 -11 -26 -20 -37 -20 -11 0 -20 -7 -20 -15 0 -8 9 -15 20 -15 11 0 20
-6 20 -13 0 -7 18 -23 40 -37 25 -15 47 -40 57 -62 9 -20 23 -39 32 -42 9 -3
24 -11 34 -18 25 -19 43 9 21 34 -22 23 -10 51 26 65 16 6 30 18 30 26 0 9 10
17 23 19 18 2 22 9 22 38 1 35 -18 84 -35 95 -5 3 -20 -5 -32 -17z"/>
<path d="M495 7130 c-4 -6 -9 -8 -13 -6 -4 2 -16 -2 -27 -10 -15 -11 -16 -17
-7 -26 10 -10 15 -10 21 1 6 9 12 -3 18 -40 6 -38 14 -57 28 -64 40 -21 73
-47 79 -61 3 -9 -1 -29 -9 -45 -17 -32 -13 -49 12 -49 9 0 13 -6 9 -15 -7 -19
1 -19 19 -1 12 12 12 15 0 20 -24 9 -18 22 19 44 24 14 33 26 32 43 -1 15 -7
23 -16 21 -23 -5 -58 19 -70 48 -6 14 -10 51 -8 81 l3 54 -31 1 c-17 1 -36 4
-42 8 -6 3 -13 2 -17 -4z"/>
<path d="M177 7094 c-9 -10 2 -24 19 -24 8 0 14 7 14 15 0 15 -21 21 -33 9z"/>
<path d="M932 7051 c-11 -19 -18 -40 -15 -48 3 -8 -4 -28 -16 -44 -17 -23 -19
-33 -11 -48 5 -11 10 -29 10 -40 0 -24 45 -75 59 -66 9 5 14 -6 25 -67 3 -11
-5 -19 -21 -23 -29 -7 -53 9 -53 36 0 31 -25 22 -43 -16 -15 -31 -19 -34 -36
-24 -14 10 -23 9 -40 -3 -21 -15 -71 -13 -71 3 0 21 -30 -6 -40 -35 -10 -31
-12 -32 -65 -32 -51 1 -55 3 -61 29 -3 15 -3 41 1 57 7 32 4 35 -25 20 -10 -5
-26 -7 -34 -4 -19 7 -21 40 -3 47 8 4 7 6 -3 6 -8 0 -21 -3 -29 -8 -7 -5 -25
-4 -42 2 -24 10 -32 8 -52 -11 -37 -35 -127 -29 -127 8 0 28 -18 34 -45 16
-30 -20 -35 -20 -35 -2 0 12 -28 25 -52 26 -5 0 -8 -11 -8 -25 0 -14 5 -25 10
-25 6 0 10 -7 10 -15 0 -21 30 -66 40 -60 7 4 18 -35 22 -75 0 -8 5 -20 10
-27 6 -8 3 -16 -10 -24 -17 -11 -18 -15 -5 -39 7 -15 23 -31 36 -35 70 -21 88
-23 101 -9 18 18 30 4 45 -53 7 -25 18 -43 29 -46 11 -3 9 -5 -8 -6 -14 -1
-34 -8 -44 -16 -24 -18 -57 -20 -51 -2 11 28 -11 39 -64 32 -28 -4 -51 -10
-51 -13 0 -4 -19 -8 -42 -10 -23 -1 -45 -6 -48 -10 -9 -12 -49 -32 -65 -32 -8
0 -15 -9 -15 -20 0 -11 7 -20 15 -20 8 0 15 5 15 10 0 6 19 10 43 10 23 0 52
7 64 15 20 14 25 12 77 -31 31 -26 56 -50 56 -55 0 -16 23 -9 57 17 24 18 38
22 49 16 10 -6 27 -5 45 1 23 9 32 8 50 -8 11 -11 27 -32 35 -47 13 -25 13
-31 -2 -53 -8 -13 -13 -29 -9 -35 10 -16 35 -12 42 8 4 9 9 19 13 22 3 3 13
20 22 39 16 34 14 61 -3 61 -5 0 -9 5 -9 10 0 6 7 10 15 10 23 0 65 30 65 46
0 21 17 17 44 -12 28 -31 64 -28 46 3 -19 34 -37 102 -33 125 5 24 69 74 91
70 6 -2 12 4 12 13 0 8 9 15 19 15 13 0 26 15 41 45 12 25 26 42 32 39 17 -11
68 17 68 37 0 25 15 24 40 -1 24 -24 39 -25 46 -5 4 8 24 25 45 37 49 28 48
50 -4 59 -45 7 -77 33 -60 50 7 7 15 6 27 -6 20 -20 43 -10 25 11 -8 10 -8 18
-1 27 6 7 10 32 9 55 -1 31 -6 44 -20 48 -10 3 -25 22 -34 41 -8 19 -22 37
-32 40 -9 2 -24 16 -33 31 l-16 26 -20 -33z m-590 -345 c10 -15 10 -41 -1 -68
-5 -13 -13 -36 -16 -53 l-7 -30 -20 39 c-17 34 -23 38 -48 33 -31 -7 -40 5
-40 49 0 43 108 68 132 30z m167 -25 c24 -18 22 -41 -4 -41 -9 0 -12 -9 -10
-30 5 -41 -29 -64 -79 -55 -47 9 -55 22 -47 70 6 37 9 40 41 43 19 2 39 10 43
18 11 19 27 17 56 -5z m91 -125 c0 -19 -27 -39 -40 -31 -8 5 -6 13 6 26 20 22
34 25 34 5z m70 -20 c0 -29 -19 -44 -31 -25 -16 25 -10 49 11 49 15 0 20 -7
20 -24z m-107 -88 c4 -14 2 -16 -13 -8 -26 14 -26 14 -39 -19 -12 -28 -47 -51
-77 -51 -12 0 -14 8 -8 38 8 49 26 61 84 60 38 -1 50 -5 53 -20z m-3 -98 c0
-5 -4 -10 -10 -10 -5 0 -10 5 -10 10 0 6 5 10 10 10 6 0 10 -4 10 -10z"/>
<path d="M456 6624 c-9 -22 -8 -24 9 -24 8 0 15 9 15 20 0 24 -15 27 -24 4z"/>
<path d="M1522 7041 c-16 -4 -28 -19 -38 -46 -18 -54 -18 -78 4 -105 18 -22
19 -22 52 -5 22 12 29 19 20 25 -9 6 -9 12 0 29 6 12 8 31 5 42 -5 15 -1 25
15 36 36 25 -1 41 -58 24z"/>
<path d="M5892 7039 c2 -7 10 -15 17 -17 8 -3 12 1 9 9 -2 7 -10 15 -17 17 -8
3 -12 -1 -9 -9z"/>
<path d="M156 7025 c-19 -14 -19 -15 4 -35 27 -24 34 -25 50 -6 6 8 21 16 33
18 12 2 22 10 22 18 0 20 -84 24 -109 5z"/>
<path d="M6396 6990 c-5 -30 -27 -56 -62 -76 -16 -10 -17 -13 -5 -28 9 -11 12
-29 7 -56 -4 -27 -1 -50 8 -68 8 -15 14 -37 13 -47 -1 -14 5 -21 21 -23 30 -4
41 -31 18 -44 -24 -13 -2 -38 33 -38 35 0 51 17 51 52 0 21 -5 28 -20 28 -20
0 -44 32 -33 44 3 3 -1 14 -11 24 -9 11 -14 26 -10 36 4 10 1 16 -9 16 -28 0
-38 69 -12 90 8 7 26 10 40 8 35 -7 40 6 21 57 -21 54 -42 64 -50 25z"/>
<path d="M6194 6995 c-4 -8 -12 -15 -20 -15 -8 0 -14 -6 -14 -12 0 -7 -9 -24
-19 -37 -14 -18 -23 -22 -37 -16 -11 5 -23 7 -28 6 -5 -1 -21 10 -37 25 -15
14 -32 23 -39 19 -7 -4 -14 2 -17 15 -13 51 -86 -17 -80 -76 1 -11 -13 -39
-32 -62 -39 -50 -36 -72 13 -72 19 0 36 -6 38 -12 3 -8 25 -13 59 -14 48 0 55
-3 67 -27 14 -28 32 -36 32 -14 0 7 -5 18 -12 25 -9 9 -9 15 0 24 7 7 12 9 12
6 0 -3 14 7 30 22 32 30 37 46 18 53 -8 2 2 13 22 26 27 16 44 20 73 15 37 -6
37 -6 37 29 0 20 3 42 6 51 4 11 1 16 -10 16 -9 0 -16 3 -16 8 0 4 -9 13 -20
20 -17 10 -21 10 -26 -3z"/>
<path d="M1187 6964 c-4 -7 -22 -15 -42 -18 -39 -8 -52 -21 -36 -40 15 -18 69
-8 82 16 12 21 8 60 -4 42z"/>
<path d="M2176 6941 c-17 -18 -17 -20 3 -40 12 -12 21 -26 21 -33 0 -29 35 25
37 57 2 30 -1 35 -21 35 -13 0 -31 -9 -40 -19z"/>
<path d="M850 6941 c0 -5 5 -13 10 -16 6 -3 10 -2 10 4 0 5 -4 13 -10 16 -5 3
-10 2 -10 -4z"/>
<path d="M713 6893 c-20 -8 -15 -33 6 -33 16 0 31 18 31 36 0 5 -21 4 -37 -3z"/>
<path d="M2145 6891 c-6 -5 -19 -11 -30 -14 -19 -5 -19 -5 3 -12 12 -4 22 -11
22 -16 0 -16 28 -10 34 8 8 20 -16 47 -29 34z"/>
<path d="M7023 6870 c-13 -5 -23 -16 -23 -25 0 -8 -7 -15 -16 -15 -23 0 -103
-52 -104 -67 0 -7 -4 -13 -10 -13 -16 0 -11 -37 6 -44 31 -12 56 -6 61 14 4
16 11 19 27 14 40 -13 51 -10 54 16 5 50 13 70 25 70 7 0 23 7 36 17 23 15 23
17 6 30 -21 15 -31 15 -62 3z"/>
<path d="M1790 6833 c0 -10 13 -47 29 -82 l29 -63 33 31 c18 18 42 31 53 30
12 -1 27 -1 34 0 20 2 13 34 -13 60 -14 13 -25 27 -25 31 0 5 -16 4 -37 -2
-25 -7 -43 -6 -60 1 -33 15 -43 14 -43 -6z"/>
<path d="M660 6819 c0 -5 5 -7 10 -4 6 3 10 8 10 11 0 2 -4 4 -10 4 -5 0 -10
-5 -10 -11z"/>
<path d="M5550 6815 c-9 -11 -6 -21 17 -50 15 -20 38 -42 51 -51 12 -8 22 -25
22 -38 0 -27 31 -59 37 -39 2 7 10 10 17 7 8 -3 22 12 35 38 18 37 19 44 6 57
-8 8 -32 16 -52 17 -54 3 -83 14 -83 31 0 13 -23 43 -33 43 -3 0 -10 -7 -17
-15z"/>
<path d="M6630 6805 c-15 -19 3 -27 25 -11 16 11 16 14 2 19 -8 3 -21 0 -27
-8z"/>
<path d="M6710 6810 c-9 -6 -10 -10 -3 -10 6 0 15 5 18 10 8 12 4 12 -15 0z"/>
<path d="M1199 6781 c-20 -16 -22 -23 -13 -38 7 -10 21 -17 33 -16 12 2 25 -5
30 -16 11 -19 57 -26 67 -9 9 14 -26 48 -42 41 -10 -4 -14 3 -14 26 0 37 -25
42 -61 12z"/>
<path d="M1576 6784 c-3 -9 -6 -26 -6 -39 0 -27 -41 -57 -48 -36 -4 13 -38 15
-46 2 -12 -19 19 -59 49 -64 24 -4 36 1 63 29 18 19 37 34 41 34 11 0 23 62
14 71 -5 3 -20 9 -34 13 -19 4 -29 1 -33 -10z"/>
<path d="M5477 6793 c-13 -12 -8 -65 6 -60 6 2 12 11 12 19 0 8 6 23 14 32 12
14 11 16 -6 16 -11 0 -23 -3 -26 -7z"/>
<path d="M6567 6776 c-18 -14 -25 -72 -7 -61 6 3 10 1 10 -4 0 -17 27 -13 34
5 17 45 -6 82 -37 60z m0 -38 c-3 -8 -6 -5 -6 6 -1 11 2 17 5 13 3 -3 4 -12 1
-19z"/>
<path d="M711 6744 c0 -11 3 -14 6 -6 3 7 2 16 -1 19 -3 4 -6 -2 -5 -13z"/>
<path d="M6677 6750 c-3 -8 -8 -32 -12 -52 -5 -36 -7 -37 -37 -31 -22 4 -29 3
-24 -5 4 -7 14 -12 22 -12 8 0 14 -5 14 -10 0 -6 11 -8 28 -4 24 7 26 6 13 -9
-11 -14 -11 -20 -1 -32 10 -13 10 -19 -2 -33 -18 -20 -29 -94 -18 -113 7 -10
12 -10 23 -1 15 13 47 6 47 -9 0 -5 -8 -9 -17 -9 -17 -1 -17 -1 0 -14 25 -20
14 -56 -43 -142 l-48 -71 34 -43 c19 -23 35 -48 35 -54 1 -6 3 -24 4 -41 2
-16 8 -52 15 -80 6 -27 9 -69 6 -92 -5 -38 -3 -43 14 -43 11 0 20 6 20 14 0 7
7 19 15 26 12 10 15 9 15 -8 0 -22 18 -32 56 -32 19 0 28 8 36 30 14 41 32 33
36 -16 4 -49 27 -66 60 -45 27 17 32 158 7 177 -8 6 -25 42 -37 80 -25 78 -25
165 -1 203 13 21 14 32 3 79 -12 55 -7 110 13 143 17 28 -13 56 -55 51 -19 -2
-53 5 -81 17 -38 17 -49 26 -54 51 -5 29 -8 30 -36 24 -29 -6 -30 -5 -14 10 9
10 17 32 16 49 -1 30 -1 30 -8 7 -7 -24 -8 -23 -23 15 -10 26 -18 35 -21 25z"/>
<path d="M6770 6740 c0 -5 5 -10 10 -10 6 0 10 5 10 10 0 6 -4 10 -10 10 -5 0
-10 -4 -10 -10z"/>
<path d="M6474 6706 c15 -13 26 -28 26 -35 0 -6 7 -11 15 -11 12 0 13 4 5 19
-15 29 -40 51 -56 51 -10 0 -7 -8 10 -24z"/>
<path d="M7401 6704 c-6 -14 -9 -29 -6 -34 3 -5 -4 -14 -15 -20 -29 -15 -26
-38 5 -33 25 5 65 53 44 53 -8 0 -8 4 1 15 13 15 7 45 -8 45 -5 0 -14 -12 -21
-26z"/>
<path d="M605 6689 c-4 -6 2 -13 14 -16 12 -3 21 -10 21 -17 0 -15 20 16 20
32 0 15 -46 16 -55 1z"/>
<path d="M1377 6682 c-21 -23 -21 -32 -3 -32 7 0 21 11 30 25 13 20 14 25 3
25 -8 0 -21 -8 -30 -18z"/>
<path d="M6950 6681 c0 -6 5 -13 10 -16 6 -3 10 1 10 9 0 9 -4 16 -10 16 -5 0
-10 -4 -10 -9z"/>
<path d="M7031 6674 c0 -11 3 -14 6 -6 3 7 2 16 -1 19 -3 4 -6 -2 -5 -13z"/>
<path d="M5955 6631 c-19 -21 -32 -27 -50 -23 -14 2 -25 0 -25 -5 0 -5 -9 -19
-19 -30 -20 -21 -20 -21 11 -27 19 -4 34 -2 38 5 5 7 23 8 52 4 l45 -7 1 35
c1 19 2 39 3 43 7 42 -21 45 -56 5z"/>
<path d="M1806 6642 c-6 -11 1 -102 9 -110 10 -10 55 50 55 73 0 11 -5 26 -12
33 -14 14 -44 16 -52 4z"/>
<path d="M6194 6633 c-24 -78 -77 -119 -140 -107 -31 6 -34 4 -34 -18 0 -13 5
-29 11 -35 5 -5 12 -41 14 -79 3 -51 8 -72 21 -81 24 -18 54 -16 54 2 0 8 8
15 18 15 9 1 29 19 44 40 17 25 36 40 48 40 12 0 18 -4 15 -10 -10 -16 31 -11
45 5 10 12 10 18 0 30 -7 8 -9 15 -4 15 15 -1 44 -26 44 -39 0 -6 9 -11 20
-11 24 0 25 9 5 56 -16 39 -39 66 -49 57 -9 -10 -36 18 -36 39 0 10 -7 21 -15
24 -8 4 -15 16 -15 28 0 39 -36 61 -46 29z"/>
<path d="M1283 6628 c-30 -38 -24 -78 7 -50 10 9 26 23 35 30 8 7 13 17 10 23
-9 13 -41 11 -52 -3z"/>
<path d="M7525 6605 c-71 -29 -85 -31 -85 -8 0 13 -3 14 -12 5 -9 -9 -5 -17
16 -35 30 -26 59 -75 51 -87 -3 -5 2 -15 11 -24 11 -12 20 -13 33 -6 21 11 91
-5 91 -20 0 -6 11 -10 25 -10 28 0 34 26 10 44 -12 9 -12 19 -4 55 5 24 7 51
4 61 -3 10 0 22 6 26 9 5 7 10 -7 15 -35 14 -78 9 -139 -16z"/>
<path d="M7040 6586 c0 -19 9 -51 20 -70 10 -20 25 -66 31 -103 6 -37 16 -74
21 -80 6 -7 32 -13 57 -13 41 0 50 4 70 31 12 17 20 36 18 43 -3 8 -1 18 3 22
10 10 -14 102 -30 118 -6 6 -10 18 -10 27 0 18 -65 47 -105 47 -11 1 -32 4
-47 8 -27 6 -28 5 -28 -30z"/>
<path d="M5686 6600 c-13 -39 -11 -55 9 -55 25 0 30 24 11 50 -12 17 -15 17
-20 5z"/>
<path d="M0 6526 c0 -19 4 -23 20 -19 11 3 20 14 20 24 0 12 -7 19 -20 19 -14
0 -20 -7 -20 -24z"/>
<path d="M1287 6523 c-6 -16 -18 -33 -26 -39 -8 -7 -11 -18 -8 -29 13 -31 -11
-94 -38 -101 -47 -12 -59 -2 -71 59 -6 32 -14 61 -18 65 -7 6 -69 -55 -100
-100 -14 -20 -25 -23 -79 -23 -34 0 -65 4 -68 9 -9 12 -38 0 -45 -19 -3 -8 3
-33 15 -55 12 -22 21 -47 21 -54 0 -14 66 -30 82 -20 4 3 8 18 8 33 0 34 18
41 85 33 58 -6 75 -34 42 -70 -32 -34 -28 -95 7 -123 14 -11 26 -27 26 -34 0
-8 14 -23 30 -35 34 -25 36 -41 11 -89 l-18 -35 33 -17 c19 -9 49 -20 68 -23
21 -4 36 -13 38 -24 3 -13 10 -8 27 21 23 38 29 41 69 37 12 -1 23 2 23 7 1 4
3 23 5 41 1 19 10 39 19 46 15 11 13 17 -23 60 -28 34 -42 62 -47 93 -6 42 -4
48 24 74 17 15 31 33 31 38 0 6 6 11 13 11 7 0 18 9 25 20 11 19 10 20 -27 20
-28 0 -41 5 -46 18 -6 15 -8 14 -16 -5 -10 -28 -25 -29 -39 -3 -9 16 -8 20 5
20 9 0 15 9 16 23 1 12 2 27 4 32 1 6 3 16 3 23 1 6 5 11 10 10 13 -2 60 20
68 33 4 7 9 26 11 41 2 23 -1 28 -20 28 -12 0 -31 7 -41 15 -33 25 -75 19 -89
-12z m48 -413 c3 -5 -3 -10 -15 -10 -12 0 -18 5 -15 10 3 6 10 10 15 10 5 0
12 -4 15 -10z"/>
<path d="M5462 6448 c4 -31 58 -40 58 -10 0 20 -18 32 -47 32 -9 0 -13 -8 -11
-22z"/>
<path d="M6655 6410 c-3 -5 -1 -10 4 -10 6 0 11 5 11 10 0 6 -2 10 -4 10 -3 0
-8 -4 -11 -10z"/>
<path d="M6535 6403 c-11 -3 -24 -9 -29 -14 -6 -5 -23 -9 -38 -9 -33 0 -39
-25 -8 -33 13 -3 20 0 20 9 0 10 12 14 39 14 34 0 40 3 38 20 -1 11 -1 19 -2
19 0 -1 -9 -3 -20 -6z"/>
<path d="M1487 6351 c-22 -23 -27 -34 -21 -55 9 -38 21 -41 38 -7 9 16 21 32
28 34 10 4 10 8 2 14 -7 4 -13 16 -15 25 -3 14 -9 12 -32 -11z"/>
<path d="M1861 6351 c-10 -7 -11 -13 -1 -30 14 -28 32 -23 41 12 6 21 4 27 -9
27 -10 0 -23 -4 -31 -9z"/>
<path d="M5745 6350 c-8 -12 20 -24 35 -15 5 3 10 10 10 16 0 12 -37 12 -45
-1z"/>
<path d="M7470 6333 c-16 -3 -31 -16 -41 -39 -16 -34 -16 -34 12 -48 16 -8 42
-17 58 -21 25 -5 30 -3 37 17 4 13 16 29 26 37 19 13 19 14 -3 37 -22 23 -36
26 -89 17z"/>
<path d="M7067 6303 c-10 -9 -9 -41 1 -47 16 -10 34 11 27 33 -6 21 -16 26
-28 14z"/>
<path d="M1750 6274 c-8 -14 -22 -30 -32 -35 -11 -6 -18 -21 -18 -39 0 -17 -4
-30 -10 -30 -5 0 -10 -7 -10 -15 0 -8 9 -15 19 -15 15 0 22 12 31 50 9 37 17
50 30 50 17 0 34 36 24 52 -9 14 -20 9 -34 -18z"/>
<path d="M0 6251 c0 -23 5 -30 27 -34 36 -7 53 1 53 24 0 13 -7 19 -24 19 -14
0 -28 5 -31 10 -12 19 -25 10 -25 -19z"/>
<path d="M5750 6216 c-14 -38 -13 -63 7 -92 20 -32 58 -47 82 -35 9 5 26 25
36 45 16 29 17 39 7 60 -11 24 -15 26 -53 20 -34 -6 -45 -4 -55 11 -12 17 -14
16 -24 -9z"/>
<path d="M6216 6221 c-3 -5 3 -11 14 -14 11 -3 20 -9 20 -14 -1 -11 -78 -46
-89 -39 -13 8 -24 -25 -11 -38 7 -7 10 -7 10 1 0 6 33 13 75 17 104 9 107 12
76 44 -14 15 -39 33 -54 40 -33 14 -34 14 -41 3z"/>
<path d="M6305 6210 c3 -5 8 -10 11 -10 2 0 4 5 4 10 0 6 -5 10 -11 10 -5 0
-7 -4 -4 -10z"/>
<path d="M207 6184 c-15 -14 -34 -23 -42 -20 -7 2 -18 -1 -25 -8 -8 -10 -7
-15 4 -19 8 -3 16 -1 18 5 6 18 28 -1 28 -23 0 -10 5 -19 11 -19 6 0 8 8 5 18
-4 12 5 26 29 45 33 27 38 47 12 47 -7 0 -25 -12 -40 -26z"/>
<path d="M7207 6193 c-4 -3 -7 -14 -7 -24 0 -9 -7 -19 -15 -23 -8 -3 -20 -17
-27 -31 -6 -14 -15 -25 -20 -25 -12 0 -38 -26 -38 -38 0 -6 7 -12 15 -16 17
-6 21 -56 5 -56 -5 0 -10 -11 -10 -25 0 -18 5 -25 19 -25 11 0 26 -3 35 -6 23
-9 33 59 12 90 -15 24 -15 24 27 31 23 4 47 12 54 17 7 6 25 6 49 -1 20 -6 41
-8 45 -6 4 3 10 -1 12 -7 4 -10 6 -10 6 0 1 6 12 12 26 12 39 0 30 25 -17 46
-23 10 -62 36 -86 57 -41 35 -70 45 -85 30z m-67 -233 c0 -5 -2 -10 -4 -10 -3
0 -8 5 -11 10 -3 6 -1 10 4 10 6 0 11 -4 11 -10z"/>
<path d="M7654 6188 c-12 -5 -29 -26 -38 -45 -14 -29 -21 -34 -41 -31 -18 4
-33 -5 -67 -41 -42 -44 -43 -48 -35 -87 7 -39 10 -42 50 -47 38 -6 45 -3 69
23 19 21 37 30 58 30 l30 0 0 105 c0 58 -1 105 -2 104 -2 0 -12 -5 -24 -11z"/>
<path d="M695 6134 c-71 -59 -85 -75 -85 -92 0 -31 11 -33 42 -7 31 27 68 33
68 13 0 -10 3 -9 9 0 5 8 24 17 42 21 28 6 34 12 34 31 0 18 -6 25 -18 25 -10
0 -23 8 -28 18 -13 23 -28 21 -64 -9z"/>
<path d="M350 6120 c0 -5 7 -10 15 -10 8 0 15 5 15 10 0 6 -7 10 -15 10 -8 0
-15 -4 -15 -10z"/>
<path d="M1605 6076 c-11 -6 -31 -22 -45 -36 -14 -14 -41 -37 -60 -52 -29 -23
-33 -31 -24 -45 16 -25 35 -28 41 -5 3 13 11 18 24 15 10 -3 35 -2 54 1 27 5
38 14 48 39 14 33 9 89 -8 93 -6 1 -19 -3 -30 -10z"/>
<path d="M1932 6040 c7 -10 9 -23 5 -27 -5 -4 -12 -2 -16 6 -6 10 -10 9 -15
-4 -8 -22 -8 -22 10 -29 8 -3 24 3 35 13 17 16 19 23 10 40 -7 12 -18 21 -26
21 -13 0 -13 -3 -3 -20z"/>
<path d="M393 6023 c-7 -3 -13 -10 -13 -17 0 -7 -14 -25 -31 -42 -27 -26 -30
-34 -26 -72 3 -31 1 -45 -10 -51 -11 -5 -13 -15 -8 -31 5 -16 10 -19 18 -11
16 16 57 14 63 -3 10 -25 35 -7 28 20 -5 19 2 32 30 60 25 25 36 45 36 65 0
21 -4 27 -15 22 -11 -4 -19 4 -27 26 -13 32 -25 41 -45 34z"/>
<path d="M6240 5980 c0 -5 11 -10 25 -10 14 0 25 5 25 10 0 6 -11 10 -25 10
-14 0 -25 -4 -25 -10z"/>
<path d="M0 5861 c0 -56 3 -101 8 -101 4 0 18 9 31 19 l23 18 -26 40 c-22 33
-26 48 -21 76 4 21 3 37 -4 41 -8 5 -11 -23 -11 -93z"/>
<path d="M6076 5925 c-12 -19 -14 -30 -7 -39 7 -9 7 -16 -2 -25 -9 -9 -9 -14
3 -21 8 -5 11 -10 5 -10 -17 -1 28 -30 46 -30 16 0 18 9 15 73 -2 64 -5 72
-23 75 -13 2 -26 -6 -37 -23z"/>
<path d="M178 5893 c-2 -20 -8 -27 -20 -25 -10 2 -18 -2 -18 -8 0 -5 5 -10 10
-10 6 0 10 -14 10 -32 0 -21 9 -41 27 -60 30 -32 41 -34 69 -14 19 15 19 15
-1 29 -14 11 -19 27 -20 66 0 40 -4 52 -17 57 -10 3 -18 10 -18 15 0 22 -19 6
-22 -18z"/>
<path d="M764 5905 c11 -8 24 -15 30 -15 5 0 1 7 -10 15 -10 8 -23 14 -29 14
-5 0 -1 -6 9 -14z"/>
<path d="M1478 5889 c-20 -11 -22 -27 -8 -49 7 -12 12 -12 29 4 39 35 22 70
-21 45z"/>
<path d="M67 5852 c-10 -10 -14 -22 -10 -25 13 -14 31 -7 47 18 16 24 15 25
-2 25 -10 0 -26 -8 -35 -18z"/>
<path d="M541 5791 c-12 -17 -31 -31 -42 -31 -40 0 -57 -33 -56 -107 l2 -68
48 3 c41 3 47 1 47 -16 0 -11 6 -23 13 -26 6 -3 -15 -4 -47 -2 -63 5 -80 0
-121 -38 -21 -20 -33 -23 -63 -19 -20 3 -39 10 -40 15 -2 5 -17 23 -33 41 -20
21 -29 26 -29 16 0 -9 -9 -26 -20 -39 -25 -28 -26 -52 -3 -48 14 2 18 -4 18
-32 0 -20 -5 -34 -11 -33 -7 1 -11 -13 -10 -34 l1 -36 60 -2 c86 -3 136 -15
142 -34 2 -9 11 -28 18 -42 15 -27 17 -23 -72 -147 -13 -19 -14 -25 -3 -35 10
-9 14 -9 17 1 3 6 13 12 24 12 10 0 19 5 19 11 0 25 26 0 35 -35 13 -46 27
-48 38 -5 6 23 5 34 -5 40 -9 6 -6 9 10 9 12 0 25 6 28 14 3 8 14 16 25 19 23
6 25 32 4 41 -20 7 -19 60 1 77 13 10 17 10 25 -2 8 -10 9 -8 4 9 -5 16 -2 22
9 22 8 0 18 -5 22 -11 3 -6 15 -9 25 -6 21 6 49 -26 49 -55 0 -28 19 -31 30
-4 17 47 54 29 52 -25 -1 -24 3 -29 23 -29 13 0 31 9 39 21 15 22 36 18 36 -6
0 -9 6 -12 15 -8 9 3 24 -2 35 -12 11 -10 28 -15 40 -12 13 3 20 0 20 -9 0 -8
7 -14 15 -14 8 0 15 -7 15 -15 0 -8 -7 -15 -15 -15 -18 0 -13 -29 16 -97 20
-48 12 -62 -19 -33 -26 24 -27 24 -49 1 -26 -26 -57 -31 -104 -15 -37 13 -42
13 -54 -2 -6 -9 -18 -14 -26 -12 -31 11 -49 -11 -49 -60 0 -46 2 -48 44 -71
30 -17 52 -22 73 -18 56 11 114 -75 84 -122 -6 -9 -6 -22 0 -33 8 -15 4 -25
-18 -48 -24 -26 -30 -28 -48 -16 -42 27 -64 -14 -25 -49 18 -16 20 -16 46 4
19 15 41 21 76 21 43 0 50 -3 58 -25 11 -28 22 -31 40 -11 8 11 18 12 36 6 25
-10 54 -4 65 13 11 16 38 0 49 -29 14 -37 4 -47 -43 -40 -32 5 -47 2 -76 -16
-20 -13 -54 -32 -76 -43 -22 -11 -43 -24 -46 -29 -4 -4 -15 -4 -25 2 -11 5
-25 7 -31 5 -15 -6 -17 -69 -3 -78 16 -10 12 -45 -5 -45 -8 0 -15 -3 -15 -6 0
-12 26 -30 38 -26 11 3 32 -35 32 -59 0 -14 -17 -11 -35 7 -9 9 -37 18 -65 20
-47 3 -50 2 -46 -19 2 -12 9 -21 15 -19 15 3 14 0 -14 -49 -14 -24 -25 -52
-25 -61 0 -27 54 -80 73 -72 10 3 17 1 17 -5 0 -7 -7 -14 -16 -18 -12 -4 -26
5 -44 27 -24 30 -30 32 -44 21 -13 -11 -16 -11 -16 2 0 14 -20 27 -41 27 -5 0
-9 -9 -9 -20 0 -13 9 -22 25 -26 14 -3 25 -9 26 -13 0 -3 3 -26 5 -50 l5 -44
-31 27 c-35 29 -50 32 -68 14 -10 -9 -16 -9 -28 4 -16 16 -25 67 -26 155 0 36
-4 42 -25 48 -14 3 -23 9 -20 12 4 3 2 15 -4 26 -9 15 -7 25 10 48 25 34 27
49 5 49 -13 0 -15 6 -9 27 4 16 7 28 8 29 1 1 23 11 50 24 46 23 47 24 47 72
0 54 -41 148 -64 148 -18 0 -27 26 -20 56 4 15 13 24 25 24 25 0 24 17 -1 25
-20 6 -29 35 -11 35 17 0 20 30 4 45 -11 12 -14 27 -10 57 3 23 1 51 -5 62 -6
12 -16 41 -23 66 -10 40 -15 45 -48 53 -29 7 -40 5 -52 -7 -24 -23 -32 -20
-27 13 3 25 1 28 -20 26 -12 -1 -24 -3 -26 -4 -1 0 4 -14 13 -31 14 -28 14
-33 -16 -100 -29 -63 -35 -70 -60 -70 -37 0 -55 29 -64 102 -6 50 -5 57 13 67
23 12 23 34 -1 79 -17 31 -57 46 -57 20 0 -9 -3 -9 -12 0 -18 18 -63 14 -81
-6 -20 -22 -22 -42 -4 -42 7 0 23 -7 36 -16 l22 -16 -20 -19 c-12 -11 -21 -28
-21 -38 0 -10 -7 -24 -15 -31 -8 -7 -13 -16 -10 -20 2 -4 -7 -12 -20 -18 -17
-8 -25 -20 -25 -36 0 -16 -7 -27 -20 -31 -17 -5 -20 -15 -20 -59 0 -56 12 -76
45 -76 22 0 41 -18 71 -68 18 -31 18 -34 1 -81 -9 -27 -17 -57 -17 -67 -1 -27
-24 -54 -46 -54 -23 0 -57 -36 -49 -51 4 -5 19 -16 35 -24 16 -8 31 -24 35
-35 3 -11 13 -20 21 -20 8 0 32 -9 54 -20 22 -11 51 -20 65 -20 21 0 25 -5 25
-28 0 -16 -9 -37 -20 -47 -11 -10 -20 -23 -20 -30 0 -7 -9 -20 -20 -30 -15
-13 -20 -14 -20 -5 0 11 -3 11 -12 2 -7 -7 -22 -12 -35 -12 -32 0 -30 -28 3
-40 14 -6 29 -8 34 -5 4 3 11 -2 14 -10 4 -11 -3 -19 -21 -26 -45 -17 -57 -8
-64 46 -3 28 -7 40 -7 28 -1 -13 -9 -23 -17 -23 -12 0 -13 9 -9 44 6 41 5 44
-20 48 l-26 5 0 -1867 0 -1868 83 32 c45 18 111 48 147 66 74 37 157 62 308
91 104 20 174 47 282 110 79 45 321 174 344 183 11 3 91 22 179 41 153 33 165
37 330 123 95 48 213 103 264 121 81 29 98 40 145 90 34 36 80 105 128 195 42
78 92 155 113 176 l37 36 11 165 c6 90 12 266 12 391 1 177 4 225 13 217 8 -6
14 -7 18 0 4 5 0 13 -7 18 -14 8 -111 216 -167 357 -17 44 -40 120 -50 170
-32 152 -31 148 -65 116 -32 -31 -140 -55 -185 -41 -55 16 -88 47 -100 92 -6
21 -24 53 -40 69 -24 25 -30 39 -30 75 0 24 -4 46 -9 49 -5 3 -21 44 -36 92
-28 89 -44 107 -73 82 -34 -30 -132 -51 -132 -28 0 5 -18 14 -40 20 -22 6 -40
15 -40 19 0 5 -18 28 -40 52 -29 32 -40 53 -40 76 0 31 2 32 30 27 19 -4 30
-2 30 4 0 6 19 30 43 53 40 39 45 40 89 35 l46 -5 7 85 c5 53 4 94 -3 108 -5
12 -8 33 -5 47 4 20 -2 28 -32 42 -33 16 -37 21 -31 47 4 23 1 32 -15 41 -18
9 -20 18 -16 57 3 26 8 60 13 76 5 21 3 32 -9 40 -8 7 -17 23 -19 36 -4 31
-19 35 -48 10 -32 -27 -68 -25 -118 7 -47 31 -48 49 -6 93 18 18 33 24 59 22
35 -3 35 -2 35 37 0 24 6 43 14 48 8 4 14 17 13 28 -1 13 9 25 36 37 25 12 37
25 37 38 0 27 -23 35 -52 19 -19 -11 -87 -38 -95 -39 -2 0 -3 6 -3 14 0 7 9
16 20 19 19 5 20 12 18 95 -3 73 -6 92 -20 101 -14 9 -18 8 -18 -5 0 -10 -7
-14 -22 -12 -27 4 -35 35 -15 62 13 18 15 18 41 1 26 -17 27 -17 51 5 14 13
25 20 25 16 0 -5 6 -3 13 3 18 14 27 4 27 -30 0 -15 3 -35 6 -44 6 -14 8 -13
21 4 9 14 12 32 7 57 -4 24 -3 35 3 31 15 -9 36 47 28 73 -6 18 -13 21 -58 19
-56 -2 -97 13 -97 36 0 8 -7 15 -15 15 -8 0 -15 4 -15 9 0 13 -42 1 -59 -17
-13 -13 -16 -12 -22 4 -7 17 -8 17 -8 2 -1 -21 -37 -42 -54 -31 -6 4 -22 6
-34 4 -15 -1 -23 3 -23 13 0 8 -9 18 -20 21 -11 4 -17 11 -14 17 4 6 -3 5 -15
-2 -54 -28 -117 21 -123 96 -3 35 -6 39 -28 37 -14 -1 -52 -3 -85 -5 l-60 -3
0 36 c0 22 -8 45 -19 57 -18 20 -18 21 10 51 l29 30 55 -18 c96 -31 110 -33
117 -15 3 9 0 19 -7 24 -6 4 -15 22 -19 40 -5 25 -13 34 -30 37 -14 2 -31 9
-39 15 -19 16 -53 36 -74 44 -10 3 -18 14 -18 24 0 10 -7 26 -16 35 -20 20
-54 84 -54 102 0 8 -11 19 -25 25 -14 6 -25 17 -25 24 0 21 -42 43 -92 50 -42
6 -46 4 -67 -25z m17 -147 c12 -21 3 -56 -12 -51 -12 4 -18 67 -5 67 4 0 12
-7 17 -16z m186 -70 c18 -7 70 -80 80 -112 5 -15 -1 -25 -29 -42 -36 -22 -37
-22 -71 -4 -19 10 -34 26 -34 35 0 9 -11 28 -25 43 -35 38 -31 52 18 69 23 8
43 15 44 16 1 0 8 -2 17 -5z m-204 -104 c0 -6 -8 -14 -17 -17 -10 -4 -21 -11
-25 -17 -4 -6 -10 -7 -14 -3 -9 9 25 47 43 47 7 0 13 -5 13 -10z m661 -454
c32 -13 34 -17 34 -62 0 -43 3 -48 32 -63 46 -23 44 -56 -8 -115 -43 -48 -46
-50 -67 -38 -9 6 -8 17 7 48 21 42 14 64 -20 64 -22 0 -23 8 -9 44 8 22 6 28
-14 42 -21 13 -23 20 -16 44 9 30 18 50 24 50 2 0 19 -6 37 -14z m-211 -107
c0 -13 -27 -22 -45 -15 -13 4 -14 10 -5 26 9 16 15 18 30 10 11 -6 20 -15 20
-21z m-720 -200 c0 -5 -7 -9 -15 -9 -8 0 -15 7 -15 15 0 9 6 12 15 9 8 -4 15
-10 15 -15z m-40 2 c0 -6 -4 -13 -10 -16 -5 -3 -10 1 -10 9 0 9 5 16 10 16 6
0 10 -4 10 -9z m-12 -86 c16 -34 15 -35 -7 -35 -25 0 -32 11 -24 38 7 29 17
28 31 -3z m320 -135 c-7 -11 -16 -20 -19 -20 -4 0 -5 9 -2 20 3 11 12 20 19
20 12 0 12 -4 2 -20z m-292 -50 c-5 -27 -4 -28 22 -22 52 14 77 9 80 -15 4
-26 6 -27 31 -13 14 7 24 4 41 -15 21 -22 22 -28 11 -52 -10 -22 -9 -29 3 -41
13 -13 13 -19 0 -44 -8 -15 -19 -28 -24 -28 -6 0 -10 -6 -10 -14 0 -8 -11 -17
-24 -20 -28 -7 -58 2 -51 14 3 5 -4 25 -15 45 -11 19 -20 44 -20 54 0 10 -7
21 -15 25 -8 3 -12 12 -9 21 8 19 -21 65 -41 65 -20 0 -19 34 0 50 9 8 13 21
10 34 -6 19 -5 20 6 3 6 -11 9 -32 5 -47z m894 -66 c0 -28 0 -27 -36 -14 -25
10 -26 11 -9 30 21 24 45 15 45 -16z m-20 -94 c0 -5 -7 -10 -16 -10 -8 0 -12
5 -9 10 3 6 10 10 16 10 5 0 9 -4 9 -10z m185 -137 c36 -37 37 -40 30 -93 -13
-113 -14 -117 -47 -124 -41 -8 -48 -1 -48 46 0 32 -4 41 -21 45 -20 6 -21 10
-14 77 4 39 9 74 11 78 13 20 55 6 89 -29z m-351 -33 c16 -17 37 -30 47 -30
12 0 16 -5 13 -15 -4 -8 -1 -15 5 -15 7 0 14 7 17 15 9 22 51 19 64 -5 12 -23
-6 -105 -29 -133 -12 -15 -13 -22 -3 -37 15 -25 15 -64 0 -106 -9 -27 -16 -32
-37 -29 -14 2 -34 6 -44 10 -11 5 -25 1 -35 -8 -9 -8 -39 -18 -65 -22 -46 -6
-48 -8 -33 -24 14 -15 14 -20 3 -29 -18 -15 -63 14 -49 31 5 7 12 23 15 37 4
18 17 30 41 38 45 17 57 32 59 81 1 23 5 41 10 41 6 0 -3 10 -19 22 -16 13
-30 26 -32 30 -2 5 -11 8 -19 8 -25 0 -13 98 17 138 13 18 29 32 34 32 6 0 24
-14 40 -30z m-394 -97 c0 -27 3 -58 6 -70 5 -20 2 -23 -19 -23 -16 0 -31 8
-38 21 -9 17 -7 25 10 43 12 12 21 34 21 49 0 15 5 27 10 27 6 0 10 -21 10
-47z m567 -5 c-3 -7 -5 -2 -5 12 0 14 2 19 5 13 2 -7 2 -19 0 -25z m-757 -43
c16 -19 30 -19 30 1 0 9 7 14 18 12 25 -5 30 -66 6 -75 -10 -4 -19 -2 -22 5
-6 20 -22 13 -32 -13 -5 -14 -17 -25 -28 -25 -23 0 -55 -33 -45 -45 5 -4 -1
-5 -12 0 -11 4 -28 10 -37 12 -10 3 -18 10 -18 17 0 6 -9 22 -19 35 -10 14
-17 32 -14 40 4 13 2 12 -10 -1 -8 -10 -17 -18 -21 -18 -3 0 -6 8 -6 18 0 41
180 73 210 37z m-239 -208 c41 -36 48 -87 13 -87 -9 0 -14 -11 -14 -33 0 -23
-8 -41 -25 -57 -14 -13 -25 -18 -25 -12 0 7 -5 12 -12 12 -24 0 -48 34 -48 67
0 29 5 36 30 44 34 12 38 24 14 37 -11 6 -14 16 -9 31 8 28 43 27 76 -2z m144
-3 c19 -20 13 -29 -12 -19 -10 5 -26 7 -35 6 -10 -1 -18 2 -18 7 0 26 41 30
65 6z m102 -54 c4 -15 14 -20 38 -20 18 0 38 -7 45 -15 15 -18 4 -74 -16 -82
-9 -3 -12 -13 -9 -24 4 -12 -1 -21 -15 -29 -12 -6 -20 -7 -20 -1 0 5 -10 11
-22 13 -28 4 -65 72 -50 91 13 15 -8 47 -32 47 -14 0 -14 3 -4 20 9 14 24 20
46 20 25 0 35 -5 39 -20z m343 10 c0 -5 -4 -10 -10 -10 -5 0 -10 5 -10 10 0 6
5 10 10 10 6 0 10 -4 10 -10z m381 -53 c-1 -4 -1 -14 -1 -22 0 -8 -4 -15 -9
-15 -5 0 -8 11 -8 25 0 14 4 24 9 23 5 -2 9 -7 9 -11z m-51 -22 c0 -8 -4 -15
-10 -15 -5 0 -10 7 -10 15 0 8 5 15 10 15 6 0 10 -7 10 -15z m-995 -75 c3 -5
-1 -10 -9 -10 -9 0 -16 5 -16 10 0 6 4 10 9 10 6 0 13 -4 16 -10z m558 -52 c3
-21 3 -38 -1 -38 -13 0 -34 60 -28 77 9 23 22 5 29 -39z m89 -8 c14 0 19 -6
16 -22 -2 -15 -10 -23 -23 -23 -16 0 -20 7 -22 35 -1 19 0 29 3 23 3 -7 15
-13 26 -13z m533 -55 c41 -42 28 -61 -19 -29 -20 12 -24 27 -17 52 2 6 12 0
36 -23z m-107 -50 c20 -43 14 -72 -17 -94 -47 -34 -91 -25 -91 18 0 15 -5 32
-12 39 -9 9 -9 18 0 37 10 22 18 25 60 25 43 0 50 -3 60 -25z m-670 -56 c17
-13 34 -18 50 -14 15 4 32 -1 49 -15 14 -11 31 -20 37 -20 6 0 24 -16 39 -35
26 -33 27 -38 16 -70 -12 -32 -16 -35 -55 -35 -63 0 -92 14 -96 47 -5 46 -40
56 -100 28 -28 -13 -55 -28 -60 -33 -6 -6 -17 -8 -24 -5 -9 3 -19 -8 -29 -31
-8 -20 -19 -36 -24 -36 -11 0 1 55 21 95 8 17 13 37 11 46 -5 23 15 71 27 64
5 -3 16 -3 22 1 7 5 21 9 32 10 11 0 22 6 24 12 6 18 31 14 60 -9z m-291 -21
c12 -13 24 -40 28 -60 6 -32 4 -41 -16 -57 -26 -21 -39 -19 -39 7 -1 9 -14 28
-30 42 -36 29 -37 37 -8 67 27 29 39 29 65 1z m788 -108 c3 -5 14 -10 24 -10
18 0 36 -36 22 -44 -8 -5 -71 45 -71 57 0 11 18 9 25 -3z m17 -117 c-3 -18 -7
-21 -18 -12 -7 6 -22 9 -33 7 -11 -2 -20 0 -21 5 -1 24 2 28 19 22 12 -3 21 0
25 10 9 25 34 -3 28 -32z m-2 -112 c0 -14 -5 -18 -20 -14 -16 4 -18 8 -9 19
16 20 29 17 29 -5z m14 -97 c9 -3 14 -10 11 -15 -7 -10 -35 0 -35 12 0 11 3
11 24 3z m-777 -89 c0 -8 -4 -15 -9 -15 -12 0 0 -40 19 -61 12 -14 11 -22 -12
-64 -14 -26 -25 -54 -25 -60 0 -22 -28 -38 -56 -31 -33 9 -85 60 -80 78 2 7 7
25 10 39 4 17 20 35 42 48 20 12 38 30 41 40 8 31 70 54 70 26z m707 -241 c22
-21 20 -32 -6 -55 -26 -21 -77 -25 -79 -6 -6 64 45 101 85 61z m526 -78 c0 -8
7 -17 16 -20 14 -5 11 -11 -15 -37 -26 -24 -35 -28 -47 -18 -8 6 -14 18 -14
25 0 8 -4 14 -10 14 -5 0 -10 5 -10 10 0 6 6 10 14 10 7 0 19 7 26 15 16 19
40 20 40 1z m-1335 -380 c12 -12 12 -18 -5 -39 -11 -14 -20 -30 -20 -37 0 -6
-5 -8 -10 -5 -6 4 -10 14 -8 23 1 10 -1 22 -5 29 -4 6 0 19 9 27 19 20 22 20
39 2z m465 -210 c0 -16 -27 -46 -41 -46 -13 0 -22 27 -15 45 7 19 56 20 56 1z"/>
<path d="M905 4050 c3 -5 10 -10 16 -10 5 0 9 5 9 10 0 6 -7 10 -16 10 -8 0
-12 -4 -9 -10z"/>
<path d="M990 5795 c-7 -9 -18 -14 -24 -12 -20 8 -46 -13 -46 -37 0 -23 10
-30 73 -50 9 -3 19 -11 21 -18 15 -50 17 -53 26 -38 11 18 16 13 25 -23 6 -21
4 -27 -9 -27 -19 0 -22 -40 -4 -58 9 -9 9 -12 0 -12 -7 0 -11 -17 -10 -46 0
-35 4 -44 15 -40 8 3 19 6 25 6 6 0 8 9 5 20 -3 13 0 20 8 20 27 0 45 -13 45
-31 0 -10 7 -19 15 -19 17 0 21 55 5 65 -17 11 -52 96 -45 113 4 10 -3 23 -17
34 l-23 17 28 26 c35 33 34 39 -5 50 -28 8 -33 14 -30 36 2 20 -3 28 -20 33
-35 9 -44 7 -58 -9z"/>
<path d="M6927 5750 c-16 -19 -16 -20 14 -20 23 0 30 4 27 17 -5 24 -21 26
-41 3z"/>
<path d="M6515 5640 c4 -6 11 -8 16 -5 14 9 11 15 -7 15 -8 0 -12 -5 -9 -10z"/>
<path d="M110 5591 c-30 -29 -43 -35 -47 -25 -3 8 -18 14 -34 14 l-29 0 0
-100 c0 -83 3 -100 15 -100 20 0 31 28 16 43 -6 6 -11 18 -11 28 0 27 59 93
99 111 30 13 39 22 39 42 0 14 -2 26 -4 26 -2 0 -22 -18 -44 -39z"/>
<path d="M6290 5482 c0 -10 7 -27 15 -38 8 -10 15 -29 15 -41 0 -12 5 -25 10
-28 6 -3 10 -14 10 -24 0 -10 12 -23 26 -30 17 -7 24 -17 20 -26 -3 -9 0 -15
8 -15 16 0 26 22 26 57 0 18 4 24 14 20 34 -13 26 52 -11 85 -21 19 -101 57
-120 58 -7 0 -13 -8 -13 -18z"/>
<path d="M1226 5384 c-4 -10 -13 -13 -26 -9 -18 6 -20 2 -20 -37 1 -24 -2 -62
-6 -85 -5 -35 -3 -44 11 -50 12 -4 23 0 32 13 10 13 26 19 56 19 39 0 42 2 42
27 1 15 9 35 18 46 16 17 15 20 -11 43 -30 27 -67 49 -81 49 -5 0 -12 -7 -15
-16z"/>
<path d="M0 5110 c0 -126 1 -130 19 -120 27 14 61 59 61 81 0 10 5 29 11 42 8
17 8 35 0 64 -9 33 -18 43 -43 52 -17 6 -35 11 -39 11 -5 0 -9 -59 -9 -130z"/>
<path d="M1155 5170 c-3 -5 1 -10 9 -10 9 0 16 5 16 10 0 6 -4 10 -9 10 -6 0
-13 -4 -16 -10z"/>
<path d="M3020 5156 c-14 -14 -50 -23 -96 -25 -12 -1 -45 -17 -74 -36 -29 -19
-59 -35 -69 -35 -14 0 -14 2 -1 11 11 8 3 9 -30 4 -25 -3 -54 -14 -65 -23 -11
-10 -35 -25 -52 -35 -26 -14 -32 -15 -27 -4 3 8 1 18 -5 22 -6 3 -11 2 -11 -3
0 -5 -11 -7 -23 -5 -17 3 -32 -4 -53 -26 -16 -17 -35 -31 -41 -31 -7 0 -13 -4
-13 -10 0 -5 -8 -18 -17 -28 -28 -28 -72 -98 -79 -126 -3 -14 -9 -26 -13 -26
-6 0 -7 -4 -17 -102 -5 -50 -3 -58 15 -68 23 -12 63 1 43 14 -16 10 -3 36 18
36 21 0 36 16 19 22 -17 6 1 60 22 65 11 3 19 9 19 13 0 5 25 20 55 34 30 14
55 31 55 38 0 9 3 9 10 -2 9 -13 10 -13 11 0 1 8 1 18 1 21 -1 4 14 3 33 -1
18 -4 37 -4 42 0 14 13 266 53 328 52 33 -1 76 -6 95 -12 19 -5 49 -10 67 -10
18 0 43 -5 57 -11 19 -9 32 -9 54 0 17 7 49 14 73 16 l44 3 -1 50 c-1 46 1 50
17 41 53 -28 51 1 -3 51 -50 46 -103 74 -124 66 -10 -4 -12 -2 -8 5 4 7 1 10
-7 7 -8 -3 -25 3 -39 12 -64 43 -182 64 -210 36z m-446 -152 c3 -8 2 -12 -4
-9 -6 3 -10 10 -10 16 0 14 7 11 14 -7z m-171 -194 c-3 -12 -8 -19 -11 -16 -5
6 5 36 12 36 2 0 2 -9 -1 -20z"/>
<path d="M1215 5150 c-8 -12 7 -19 54 -25 41 -5 52 4 29 22 -16 13 -76 15 -83
3z"/>
<path d="M6410 4990 c0 -5 5 -10 10 -10 6 0 10 5 10 10 0 6 -4 10 -10 10 -5 0
-10 -4 -10 -10z"/>
<path d="M28 4963 c7 -3 16 -2 19 1 4 3 -2 6 -13 5 -11 0 -14 -3 -6 -6z"/>
<path d="M1545 4911 c-7 -12 12 -24 25 -16 11 7 4 25 -10 25 -5 0 -11 -4 -15
-9z"/>
<path d="M3090 4774 c-249 -31 -454 -123 -531 -239 -19 -27 -37 -51 -41 -53
-9 -4 1 -63 13 -76 4 -5 1 -19 -8 -32 -15 -23 -15 -24 15 -24 16 0 44 3 61 6
26 6 31 11 29 32 -3 22 3 27 42 39 25 8 59 17 75 19 41 8 69 12 78 13 4 1 17
11 29 23 16 16 41 25 88 30 121 15 205 21 315 22 125 1 141 13 79 56 -19 14
-41 31 -49 38 -7 6 -18 12 -24 12 -6 0 -11 7 -11 16 0 9 -8 23 -17 31 -16 12
-14 13 17 7 19 -3 40 -10 45 -14 9 -7 125 -11 125 -4 0 7 -58 62 -82 78 -39
25 -140 33 -248 20z m-21 -65 c-7 -14 -16 -18 -30 -14 -11 4 -26 1 -34 -5 -20
-17 -127 -30 -142 -18 -10 8 -13 6 -13 -7 0 -10 -3 -15 -7 -12 -3 4 -13 -2
-21 -14 -8 -11 -41 -32 -73 -46 -32 -14 -59 -30 -59 -34 0 -5 -7 -9 -15 -9
-26 0 -17 16 38 64 76 67 199 112 310 114 54 1 57 0 46 -19z m36 12 c3 -5 1
-12 -5 -16 -5 -3 -10 1 -10 9 0 18 6 21 15 7z m42 -4 c13 5 14 3 6 -12 -17
-30 -41 -27 -35 4 3 14 7 21 9 14 2 -7 11 -9 20 -6z m43 -132 c10 -13 9 -15
-9 -15 -12 0 -21 6 -21 15 0 8 4 15 9 15 5 0 14 -7 21 -15z"/>
<path d="M872 4450 c0 -14 2 -19 5 -12 2 6 2 18 0 25 -3 6 -5 1 -5 -13z"/>
<path d="M3185 4406 c-16 -13 -75 -38 -130 -56 -86 -28 -117 -33 -217 -36
-114 -2 -143 -7 -134 -22 7 -12 188 -4 273 12 130 24 274 90 257 118 -8 12
-16 10 -49 -16z"/>
<path d="M4450 4351 c0 -12 39 -21 45 -11 3 4 -2 11 -11 14 -22 8 -34 7 -34
-3z"/>
<path d="M675 4320 c3 -5 8 -10 11 -10 2 0 4 5 4 10 0 6 -5 10 -11 10 -5 0 -7
-4 -4 -10z"/>
<path d="M1681 4276 c-13 -7 -20 -16 -15 -19 5 -3 20 3 33 14 27 22 17 25 -18
5z"/>
<path d="M801 4214 c0 -11 3 -14 6 -6 3 7 2 16 -1 19 -3 4 -6 -2 -5 -13z"/>
<path d="M1706 4145 c-22 -20 -26 -33 -26 -75 0 -28 5 -60 10 -71 10 -18 12
-18 37 11 14 17 39 38 57 47 53 27 59 51 21 88 -31 32 -65 32 -99 0z"/>
<path d="M5344 4129 c-3 -6 -1 -16 5 -22 8 -8 11 -5 11 11 0 24 -5 28 -16 11z"/>
<path d="M3917 4061 c-4 -17 -3 -21 5 -13 5 5 8 16 6 23 -3 8 -7 3 -11 -10z"/>
<path d="M4097 3914 c-22 -29 -18 -38 9 -27 10 5 20 18 21 31 3 29 -7 28 -30
-4z"/>
<path d="M4220 3890 c-6 -11 -16 -20 -23 -19 -25 3 -38 -1 -32 -11 3 -5 17
-10 30 -10 13 0 30 -6 37 -12 24 -23 66 -41 82 -35 9 4 16 2 16 -4 0 -5 8 -9
17 -7 15 3 18 -7 19 -72 1 -41 3 -80 5 -86 2 -6 -10 -22 -26 -36 -28 -24 -38
-26 -102 -23 -51 2 -77 8 -89 19 -9 10 -14 20 -10 23 9 9 -24 43 -41 43 -8 0
-19 -13 -24 -30 -8 -21 -18 -30 -33 -30 -11 0 -27 -9 -34 -20 -7 -12 -17 -18
-22 -15 -6 3 -10 -3 -10 -14 0 -14 -6 -21 -20 -21 -13 0 -24 -10 -30 -25 -5
-14 -14 -25 -19 -25 -6 0 -8 -7 -4 -16 5 -13 2 -15 -15 -10 -16 5 -33 -6 -82
-54 -33 -33 -67 -60 -74 -60 -7 0 -32 15 -55 33 -31 25 -49 32 -70 29 -24 -3
-29 0 -33 23 -5 22 -2 26 13 22 22 -6 23 -3 10 22 -16 29 -83 69 -129 76 -43
7 -92 -12 -92 -35 0 -6 19 -23 42 -40 46 -33 81 -40 71 -14 -5 14 -3 15 12 6
12 -6 28 -7 43 -1 14 5 27 7 30 4 3 -3 0 -5 -6 -5 -8 0 -9 -11 -5 -32 6 -29 4
-31 -9 -20 -22 18 -32 -9 -13 -35 9 -11 14 -13 15 -5 0 8 10 3 23 -12 12 -13
56 -36 97 -50 41 -14 82 -35 92 -46 18 -22 96 -28 115 -9 5 5 36 13 67 16 31
3 59 10 62 14 3 5 18 9 35 9 18 0 29 5 29 14 0 14 47 24 134 29 22 1 41 8 44
15 3 9 8 10 17 2 17 -14 43 -3 50 21 8 23 25 25 25 3 0 -14 3 -14 15 -4 8 7
15 23 15 35 0 33 29 40 56 14 13 -12 21 -26 18 -31 -7 -11 31 -50 40 -41 10
10 7 43 -4 43 -19 0 -10 18 11 23 16 4 20 10 14 24 -4 10 -7 27 -7 38 1 11 -6
30 -14 43 -14 21 -14 25 0 41 14 16 14 19 -1 40 -12 18 -13 25 -3 31 19 12 3
112 -27 165 -26 47 -49 66 -71 58 -7 -3 -20 1 -28 8 -13 10 -17 10 -24 -1 -7
-12 -17 -8 -49 18 -47 37 -56 39 -71 12z m263 -450 c-3 -11 -9 -17 -14 -14
-14 8 -10 34 5 34 9 0 12 -7 9 -20z"/>
<path d="M1960 3855 c0 -27 9 -32 28 -13 18 18 14 38 -8 38 -15 0 -20 -7 -20
-25z"/>
<path d="M4160 3814 c0 -8 5 -12 10 -9 6 4 8 11 5 16 -9 14 -15 11 -15 -7z"/>
<path d="M4135 3780 c4 -6 11 -8 16 -5 14 9 11 15 -7 15 -8 0 -12 -5 -9 -10z"/>
<path d="M4100 3731 c0 -6 5 -13 10 -16 6 -3 10 1 10 9 0 9 -4 16 -10 16 -5 0
-10 -4 -10 -9z"/>
<path d="M4168 3668 c14 -14 16 -42 2 -33 -5 3 -10 -1 -10 -9 0 -19 1 -19 34
-6 31 11 34 35 7 50 -28 15 -49 14 -33 -2z"/>
<path d="M2960 3462 c0 -7 -6 -12 -14 -12 -7 0 -16 -9 -19 -20 -3 -11 -2 -20
3 -20 11 0 43 51 36 58 -3 3 -6 0 -6 -6z"/>
<path d="M2881 3378 c1 -18 3 -25 6 -16 2 9 12 18 21 20 14 3 13 6 -5 16 -22
12 -23 11 -22 -20z"/>
<path d="M4401 3364 c0 -11 3 -14 6 -6 3 7 2 16 -1 19 -3 4 -6 -2 -5 -13z"/>
<path d="M4770 3311 c0 -5 5 -13 10 -16 6 -3 10 -2 10 4 0 5 -4 13 -10 16 -5
3 -10 2 -10 -4z"/>
<path d="M4826 3302 c-4 -6 -2 -21 4 -32 8 -16 7 -22 -9 -32 -15 -9 -17 -15
-9 -26 8 -9 8 -16 0 -24 -9 -9 -12 -8 -12 5 0 9 -4 17 -9 17 -15 0 -32 -27
-26 -42 10 -25 -75 -60 -129 -53 -30 3 -46 1 -46 -6 0 -7 -43 -10 -135 -7 -74
2 -136 0 -138 -4 -2 -8 -162 -57 -209 -66 -16 -2 -28 -8 -28 -12 0 -4 -18 -15
-40 -25 -22 -10 -38 -20 -36 -22 2 -2 26 -6 54 -9 39 -3 60 1 98 20 48 24 104
26 104 4 0 -12 40 0 62 19 9 8 29 13 45 11 25 -3 29 -8 38 -56 l10 -53 35 36
c39 40 50 43 50 14 0 -12 8 -23 20 -26 25 -7 28 -53 4 -53 -9 0 -18 -9 -21
-20 -4 -14 -20 -25 -50 -33 -44 -11 -67 -34 -61 -60 4 -16 -36 -67 -52 -67 -7
0 -10 7 -6 15 3 9 0 15 -9 15 -8 0 -15 4 -15 9 0 17 -50 22 -73 7 -17 -11 -33
-13 -70 -5 -27 5 -53 12 -59 15 -6 4 -18 -3 -27 -15 -12 -15 -33 -24 -66 -29
-37 -5 -51 -12 -53 -26 -7 -35 13 -39 75 -17 32 12 73 29 92 38 35 16 51 17
113 10 38 -4 71 -23 63 -37 -3 -4 -25 -13 -50 -19 -45 -11 -58 -27 -30 -37 8
-4 15 -17 15 -31 0 -19 4 -23 19 -18 11 3 22 1 26 -5 10 -15 81 27 94 57 6 13
14 22 19 20 4 -3 18 -1 31 4 17 7 22 15 18 29 -4 14 0 20 12 20 10 0 24 17 36
45 12 28 32 53 53 65 17 11 32 26 32 35 0 8 4 15 10 15 17 0 133 89 176 135
50 53 67 93 58 128 l-6 27 64 0 c35 0 69 5 74 10 8 8 19 -2 39 -30 15 -22 31
-40 36 -40 11 0 22 84 14 109 -3 11 -20 30 -37 42 -28 20 -31 21 -40 6 -10
-19 -38 -23 -38 -6 0 6 -7 17 -15 25 -13 14 -15 13 -15 -10 0 -28 -6 -31 -30
-16 -10 6 -11 10 -2 10 6 0 12 7 12 15 0 8 -5 15 -11 15 -7 0 -17 7 -24 17 -8
11 -14 13 -19 5z"/>
<path d="M2820 3255 c-6 -15 -19 -29 -30 -32 -11 -3 -20 -12 -20 -19 0 -8 -4
-14 -10 -14 -5 0 -10 -14 -10 -32 0 -35 -12 -31 -15 5 -2 16 -7 21 -21 19 -25
-5 -24 -4 -34 -46 -16 -72 15 -103 45 -46 16 32 35 40 35 16 0 -8 7 -22 16
-31 15 -14 19 -12 57 22 23 20 46 46 50 57 10 26 0 66 -16 66 -7 0 -13 12 -12
27 0 35 -22 41 -35 8z"/>
<path d="M2966 3041 c-12 -19 32 -73 90 -111 33 -22 65 -40 72 -40 8 0 25 -9
39 -20 31 -24 43 -18 43 23 0 47 14 65 39 50 16 -10 20 -9 24 8 4 14 12 20 28
17 18 -2 24 3 30 26 5 17 6 32 3 35 -3 4 -74 7 -157 8 -83 1 -164 5 -178 8
-15 4 -30 2 -33 -4z"/>
<path d="M3475 3010 c11 -5 31 -9 45 -9 20 -1 22 1 10 9 -8 5 -28 9 -45 9 -26
0 -27 -2 -10 -9z"/>
<path d="M3594 2984 c22 -8 41 -12 44 -9 6 6 -45 25 -66 24 -9 0 1 -7 22 -15z"/>
<path d="M3845 2960 c-18 -7 -18 -9 -3 -15 22 -9 54 -3 51 10 -3 13 -24 16
-48 5z"/>
<path d="M3221 2824 c0 -11 3 -14 6 -6 3 7 2 16 -1 19 -3 4 -6 -2 -5 -13z"/>
<path d="M3305 2780 c3 -5 11 -10 16 -10 6 0 7 5 4 10 -3 6 -11 10 -16 10 -6
0 -7 -4 -4 -10z"/>
<path d="M3461 2767 c-29 -29 -2 -46 74 -47 22 0 58 -5 80 -10 46 -10 50 -8
36 18 -8 16 -18 18 -66 14 -46 -4 -62 -1 -84 16 -21 15 -31 18 -40 9z"/>
<path d="M3687 2700 c6 -7 33 -19 60 -26 26 -7 58 -16 71 -20 18 -5 22 -3 22
17 0 22 -4 24 -47 25 -27 0 -64 4 -83 8 -28 7 -33 6 -23 -4z"/>
<path d="M4440 2422 c0 -10 22 -32 32 -32 4 0 8 9 8 20 0 13 -7 20 -20 20 -11
0 -20 -4 -20 -8z"/>
<path d="M4370 2380 c0 -6 7 -10 15 -10 8 0 15 2 15 4 0 2 -7 6 -15 10 -8 3
-15 1 -15 -4z"/>
<path d="M4420 2371 c0 -5 7 -14 15 -21 13 -10 15 -9 15 9 0 12 -6 21 -15 21
-8 0 -15 -4 -15 -9z"/>
<path d="M4380 2320 c0 -5 7 -10 15 -10 8 0 15 5 15 10 0 6 -7 10 -15 10 -8 0
-15 -4 -15 -10z"/>
<path d="M4328 2313 c7 -3 16 -2 19 1 4 3 -2 6 -13 5 -11 0 -14 -3 -6 -6z"/>
<path d="M4290 2302 c0 -12 19 -26 26 -19 2 2 -2 10 -11 17 -9 8 -15 8 -15 2z"/>
<path d="M2832 2005 c12 -27 28 -34 28 -12 0 14 -20 37 -32 37 -4 0 -2 -11 4
-25z"/>
<path d="M2897 2022 c-16 -7 -16 -9 -2 -30 16 -22 45 -30 45 -12 0 6 -6 10
-14 10 -9 0 -12 7 -9 20 6 22 6 22 -20 12z"/>
<path d="M3036 1957 c3 -10 9 -15 12 -12 3 3 0 11 -7 18 -10 9 -11 8 -5 -6z"/>
<path d="M2955 1940 c3 -5 8 -10 11 -10 2 0 4 5 4 10 0 6 -5 10 -11 10 -5 0
-7 -4 -4 -10z"/>
<path d="M3080 1866 c0 -26 15 -43 24 -28 7 12 -4 52 -15 52 -5 0 -9 -11 -9
-24z"/>
<path d="M2702 1758 c3 -7 13 -15 24 -17 16 -3 17 -1 5 13 -16 19 -34 21 -29
4z"/>
<path d="M2800 1721 c0 -5 7 -12 16 -15 14 -5 15 -4 4 9 -14 17 -20 19 -20 6z"/>
<path d="M3256 1704 c-11 -8 -16 -14 -10 -14 13 0 39 18 34 24 -3 2 -14 -2
-24 -10z"/>
<path d="M3942 1596 c1 -10 8 -17 13 -17 15 1 12 24 -3 29 -9 3 -13 -2 -10
-12z"/>
<path d="M3635 1550 c3 -5 8 -10 11 -10 2 0 4 5 4 10 0 6 -5 10 -11 10 -5 0
-7 -4 -4 -10z"/>
<path d="M3130 1302 c0 -25 16 -37 23 -18 3 8 -1 20 -9 26 -11 10 -14 9 -14
-8z"/>
<path d="M2313 1274 c-24 -87 5 -417 48 -542 11 -31 31 -99 44 -150 13 -51 35
-118 48 -150 14 -31 38 -100 55 -152 31 -98 86 -253 97 -270 3 -6 40 -10 81
-10 84 0 90 8 54 68 -11 18 -20 39 -20 46 0 8 -3 16 -7 18 -5 2 -16 21 -27 43
-10 22 -23 48 -28 59 -5 10 -16 44 -24 75 -8 31 -22 66 -30 78 -7 12 -14 34
-14 49 0 14 -6 40 -13 57 -18 41 -36 94 -106 297 -31 91 -60 170 -64 177 -14
22 -57 183 -68 255 -6 40 -13 75 -15 77 -1 2 -7 -10 -11 -25z"/>
<path d="M3172 1235 c-7 -14 -12 -35 -12 -45 0 -24 21 -70 32 -70 12 0 10 34
-4 48 -9 9 -7 16 6 31 19 20 19 52 0 58 -6 2 -16 -8 -22 -22z"/>
<path d="M3067 1244 c-8 -8 1 -24 14 -24 5 0 9 7 9 15 0 15 -12 20 -23 9z"/>
<path d="M3232 1239 c2 -6 8 -10 13 -10 5 0 11 4 13 10 2 6 -4 11 -13 11 -9 0
-15 -5 -13 -11z"/>
<path d="M3200 1185 c0 -8 2 -15 4 -15 2 0 6 7 10 15 3 8 1 15 -4 15 -6 0 -10
-7 -10 -15z"/>
<path d="M3270 1106 c0 -9 5 -16 10 -16 6 0 10 4 10 9 0 6 -4 13 -10 16 -5 3
-10 -1 -10 -9z"/>
<path d="M3240 1063 c0 -9 -7 -25 -17 -35 -23 -25 2 -23 28 3 11 11 18 27 15
35 -7 19 -26 18 -26 -3z"/>
<path d="M3420 1061 c0 -23 32 -81 45 -81 19 0 20 19 1 26 -8 3 -12 12 -9 20
3 8 0 21 -7 29 -14 17 -30 20 -30 6z"/>
<path d="M3480 1046 c0 -9 5 -16 10 -16 6 0 10 4 10 9 0 6 -4 13 -10 16 -5 3
-10 -1 -10 -9z"/>
<path d="M3590 1030 c0 -5 14 -10 31 -10 17 0 28 4 24 10 -3 6 -17 10 -31 10
-13 0 -24 -4 -24 -10z"/>
<path d="M3340 1023 c0 -4 5 -15 10 -23 8 -13 10 -13 10 2 0 9 -4 20 -10 23
-5 3 -10 3 -10 -2z"/>
<path d="M3294 989 c-4 -7 1 -18 11 -26 27 -19 37 -16 25 6 -14 27 -27 34 -36
20z"/>
<path d="M3710 990 c0 -5 5 -10 10 -10 6 0 10 5 10 10 0 6 -4 10 -10 10 -5 0
-10 -4 -10 -10z"/>
<path d="M3608 978 c-6 -16 21 -68 34 -68 5 0 7 7 4 16 -3 9 -6 27 -6 40 0 25
-25 34 -32 12z"/>
<path d="M3271 954 c0 -11 3 -14 6 -6 3 7 2 16 -1 19 -3 4 -6 -2 -5 -13z"/>
<path d="M3816 953 c5 -5 12 -12 16 -18 4 -6 8 -2 8 8 0 9 -7 17 -17 17 -9 0
-12 -3 -7 -7z"/>
<path d="M3786 922 c-22 -25 -20 -35 4 -27 11 4 20 2 20 -4 0 -6 5 -11 10 -11
14 0 12 22 -4 42 -12 17 -14 17 -30 0z"/>
<path d="M3670 906 c0 -9 5 -16 10 -16 6 0 10 4 10 9 0 6 -4 13 -10 16 -5 3
-10 -1 -10 -9z"/>
<path d="M4900 880 c0 -5 5 -10 10 -10 6 0 10 5 10 10 0 6 -4 10 -10 10 -5 0
-10 -4 -10 -10z"/>
<path d="M4654 857 c-7 -20 3 -37 22 -37 18 0 18 24 -1 40 -12 10 -16 9 -21
-3z"/>
<path d="M3848 853 c7 -3 16 -2 19 1 4 3 -2 6 -13 5 -11 0 -14 -3 -6 -6z"/>
<path d="M4160 604 l-25 -14 33 0 c22 0 32 5 32 15 0 18 -7 18 -40 -1z"/>
<path d="M4157 496 c-6 -15 1 -26 15 -26 11 0 10 27 -1 34 -5 3 -11 0 -14 -8z"/>
<path d="M4000 419 c0 -5 5 -7 10 -4 6 3 10 8 10 11 0 2 -4 4 -10 4 -5 0 -10
-5 -10 -11z"/>
</g>
</svg>
